<svg xmlns="http://www.w3.org/2000/svg" width="326.776" height="229.885" viewBox="0 0 326.776 229.885">
  <g id="Group_60" data-name="Group 60" transform="translate(-66.234 -468.01)">
    <g id="Group_17" data-name="Group 17">
      <path id="Path_3" data-name="Path 3" d="M386.032,697.9c15.214-52.192,2.94-139.7-11.934-210.349-171.4-43.955-280.639,0-280.639,0-19.917,67.759-36.01,147-21.848,195.578" fill="none"/>
      <path id="Path_5" data-name="Path 5" d="M69.822,683.759c70.815-38.094,121.433,4.363,121.433,4.363s4.718-146.29,40.211-149.268,34.715,153.793,34.715,153.793" fill="none"/>
      <path id="Path_6" data-name="Path 6" d="M387.255,697.894s-50.618-42.458-121.433-4.363" fill="none"/>
    </g>
    <path id="Path_207" data-name="Path 207" d="M90.528,497.721s124.359-19.779,285.666,0" fill="none"/>
    <path id="Path_208" data-name="Path 208" d="M103.591,489.81a4.811,4.811,0,0,1-4.607-.863,5.3,5.3,0,0,1,4.749-.91,2.516,2.516,0,0,1-1.421,3.078l6.986-2.482a18.273,18.273,0,0,1,12.115-3.378,3.987,3.987,0,0,1-1.984,4.3l2.3-1.578a16.669,16.669,0,0,1-9.063-1.111,3.38,3.38,0,0,1,5.649.543,19.222,19.222,0,0,1-8.263,3.275l8.731.33c-.867-1.985.929-4.312,3.032-4.831s4.291.207,6.335.924a2.282,2.282,0,0,1-3.705-.209,9.622,9.622,0,0,1,11.741-3.209c-1.995,3.749-8.7,3.121-9.96-.933A1.492,1.492,0,1,1,125.064,485a5.634,5.634,0,0,1,8.068-.17,6.9,6.9,0,0,1-5.526,2.489,6.882,6.882,0,0,1,9.926-1.141,4.064,4.064,0,0,1-5.229.471c.693-2.046,2.521-3.878,4.681-3.848s4.059,2.63,2.928,4.471c-1.25,2.033-5.176.469-4.685-1.866s4.715-2.186,5.04.178a2.474,2.474,0,0,1-1.735-3.926,2.63,2.63,0,0,1,4.268,1.135,2.8,2.8,0,0,1-3.244,3.17,3.2,3.2,0,1,1,4.991,2.4,5.043,5.043,0,0,1-.759-6.241,2.961,2.961,0,0,1-2.295,4.039,4.106,4.106,0,0,1,5.082-1.912c-.4.432-1.162-.263-.977-.825s.817-.825,1.385-.991c3-.878,7.63.687,6.643,3.652l-3.772-1.125c.579.415,1.341-.449,1.194-1.146a5.562,5.562,0,0,0-1.141-1.782,3.65,3.65,0,0,1,2.519-5.394c1.608,1.837-.163,5.311-2.594,5.089a4.542,4.542,0,0,1,4.44-4.479,4.118,4.118,0,0,1,3.755,4.862,3.765,3.765,0,0,1-5.6,2.039,2.6,2.6,0,0,1,4.364.4c-2.088.483-3.063-3.113-1.368-4.425s4.2-.672,6.017.46a4.03,4.03,0,0,1-5.776,1.85,2.915,2.915,0,0,1,4.772-.459c-2.013,1.625-4.943-2.213-3.118-4.047s5.432-.086,5.691,2.488-2.057,4.883-4.6,5.364c-.578-2.987,2.978-5.88,5.785-4.7a3.191,3.191,0,0,1-2.617,2.95,4.205,4.205,0,0,1,6.04,2.822c-2.816.7-4.439-4.453-1.727-5.488a2.372,2.372,0,0,1-.706,3.376A3.633,3.633,0,0,1,171.863,482a4.356,4.356,0,0,1-3.661.652c.55-1.8,3.985-.788,3.471,1.023-1.112-1.4-2.29-3.175-1.653-4.849s4-1.235,3.43.464c-.445,2.319-4.2,2.97-5.4.936s1.188-5,3.432-4.27c2.56.837,2.645,4.729.891,6.773a4.108,4.108,0,0,1,3.441-4.124c1.958-.187,3.906,1.787,3.433,3.7s-3.5,2.589-4.56.933a2.349,2.349,0,0,1,3.245-2.489,1.927,1.927,0,0,1-.959,2.574,3.676,3.676,0,0,1-.23-4.862c1.238-1.291,3.881-.842,4.313.894s-2.3,3.269-3.362,1.827c3.182.084,5.469,4.167,3.879,6.925a2.005,2.005,0,0,1-.858.873c-1.114.5-2.224-.724-2.713-1.844a13.671,13.671,0,0,1-.709-8.766,2.892,2.892,0,1,1-.6,5.726c-.565-2.476,2.994-4.656,4.944-3.029a3.168,3.168,0,0,1,5.2-3.6,3.011,3.011,0,1,1-5.429-2.432,6.487,6.487,0,0,1,4.258,1.79c.533.512.956,1.437.4,1.919s-1.059-1.093-.394-.77a2.261,2.261,0,1,1-3.869,1.108,3.649,3.649,0,0,1,3.632.206c1,.786,1.147,2.588.062,3.254s-2.743-.853-1.96-1.857a5.454,5.454,0,0,1,5.793.4,3.871,3.871,0,0,1-2.21-2.2,3.512,3.512,0,1,1,3.62,6.008,3.6,3.6,0,0,0-3.137-3.259,6.961,6.961,0,0,1,4.426-.514c-1.75-.67.252-3.711,1.933-2.882s1.784,3.248,1.083,4.986c-1.254.282-1.941-1.724-1.113-2.706s2.271-1.1,3.554-1.153l10.675-.409a53.2,53.2,0,0,1-14.618-.483,6.432,6.432,0,0,1,7.186-1c-3.049.139-5.382-3.846-3.767-6.437a4.167,4.167,0,0,1-.234,6.18l5.068,2.2a5.917,5.917,0,0,1-2.811-4.294c3.806-1.157,7.974,3.307,6.56,7.025-1.045.01-.989-1.642-.377-2.489a4.818,4.818,0,0,1,4.164-2.217c1.639.168,3.075,1.951,2.468,3.483s-3.419,1.446-3.618-.19c1.431.978-.436,3.307-2.157,3.113s-3.153-1.507-4.869-1.742a7.44,7.44,0,0,1,9.024-1.064c-.791,1.635-3.626,1.112-4.236-.6s.557-3.645,2.147-4.522a11.667,11.667,0,0,1,5.3-1.022,3.991,3.991,0,1,1-5.922-4.961c4.05,1.8,5.366,7.844,2.428,11.159a12.666,12.666,0,0,1,4.386-2.067c.7-.176,1.643-.18,1.923.486s-1.245.982-.981.309c2.755-1.224,6.29,1.812,5.5,4.72-2.528-.512-3.388-4.47-1.3-5.985,2.142.215,2.155,3.9.169,4.728s-4.3-.609-5.342-2.492a4.238,4.238,0,0,1-.61-2.161,2.932,2.932,0,1,1,5.755.885c-.01-1.578,2.589-2.265,3.36-.89-1.47,1.315-4.088-.685-3.6-2.6s3.007-2.736,4.827-1.977a6.857,6.857,0,0,1,3.543,4.5,5.4,5.4,0,0,1-.1,4.174c-.693,1.252-2.518,1.919-3.624,1.011a4.266,4.266,0,0,1,3.856-3.977,2.447,2.447,0,0,1-3.046-.559c-.015-2.05,2.828-3.189,4.587-2.137s2.348,3.4,2.022,5.424c-2.69-2.434-1.255-7.765,2.293-8.52,1.891,1.069,3.432,3.171,3.006,5.3s-3.552,3.4-4.921,1.71a5.273,5.273,0,0,1,5.142-3.375,3.305,3.305,0,0,1-.822,4.51,3.858,3.858,0,0,1,2.884-5.75,2.941,2.941,0,0,1-2.938,4.173A3.757,3.757,0,0,1,241,486.005a3.545,3.545,0,1,1,4.693-3.688c-2.446-.266-2.067-4.9.39-4.763s2.326,4.781-.135,4.777c.569-2.236,4.838-1.158,4.277,1.08-.822,1.588-3.6.735-4.015-1s.74-3.475,2.085-4.654a2.647,2.647,0,0,1,1.143,2.306,5.4,5.4,0,0,1-1.484-7.313,4.815,4.815,0,0,1,7.219-.47c1.814,2.1.762,5.987-1.916,6.715-2.3-.786-4.573-3.663-2.834-5.364,1.506-1.473,4.266.325,4.41,2.427s-1.275,3.951-2.617,5.575l.8-4.734a13.764,13.764,0,0,1,11.554,2.345c.673.659-1,1.586-1.422.744s.571-1.831,1.512-1.785a4.127,4.127,0,0,1,2.409,1.358c-2.467,1.292-5.932-1.1-5.6-3.867a3.762,3.762,0,0,1,4.561,2.762,11.635,11.635,0,0,1-9.231.97,6.144,6.144,0,0,1,7.679,4.693c-.722,1.356-3.294.6-3.164-.934a6.35,6.35,0,0,1,7.654,1.113,7.541,7.541,0,0,1-7.949-3.128c.933-3.382,6.829-3.451,7.841-.091s-3.941,6.559-6.587,4.255a11,11,0,0,1,9.542-4.573,7.094,7.094,0,0,1-5.525,1.278,8.839,8.839,0,0,1,11.454-.784,8.435,8.435,0,0,1-6.752.694,2.446,2.446,0,0,1,3.076.1,10.394,10.394,0,0,1-6.455-2.827,9.31,9.31,0,0,1,6.117-.988c-.889,2.046-4.573.074-3.877-2.046s3.769-2.542,5.64-1.326,2.812,3.411,3.65,5.479a3.112,3.112,0,0,1,4.283.785,13.48,13.48,0,0,1-7.149,1.957,7.157,7.157,0,0,1,5.529.8,6.835,6.835,0,0,1-1.62-3.828,12.142,12.142,0,0,1,9.414-.95,70.521,70.521,0,0,1-9.488,7.759c2.972,1.268,5.825-1.787,8.049-4.13s6.753-3.918,8.129-.995a3.716,3.716,0,0,1-3.769-2.209c3.367-1.048,6.468,4.155,3.945,6.618.272-3.218,5.511-4.38,7.118-1.579a7.5,7.5,0,0,1-8.605,3.3,5.644,5.644,0,0,1,4.463-2.407,15.077,15.077,0,0,1-6.5-4.972,4.593,4.593,0,0,1,4.093-2.295c.34,1.787.5,3.782-.519,5.29s-3.657,1.912-4.55.326c-.733-1.3.215-3.035,1.565-3.677a8.263,8.263,0,0,1,4.411-.352c.11.835-.891-.553-.213-1.054a8.088,8.088,0,0,1,11.565,2.855,2.279,2.279,0,0,1-3.005-.629,2.494,2.494,0,0,1,4.134-.618c-.593,1.723-3.572,1.734-4.178.016a9.065,9.065,0,0,1,8.51,4.463,7.653,7.653,0,0,1-5.35,1.077,11.571,11.571,0,0,1,9.862.975,4.226,4.226,0,0,1-2.26-4.892c3.843-1.53,8.492,2.951,7.105,6.848-1.2-.712.161-3.011,1.363-2.294a3.094,3.094,0,0,1-5.2-.3,3.981,3.981,0,0,1,6.259.662l11.5.34a2.032,2.032,0,0,1-3.276-.659c.79-2.063,4.72-.194,3.619,1.721a5.251,5.251,0,0,1-3.994-3.427,2.744,2.744,0,0,1,3.868-.03,23.41,23.41,0,0,1-12.921-2.754,7.984,7.984,0,0,1,10,5,2.507,2.507,0,0,1-2.9-2.7,51.112,51.112,0,0,1,14.605,7.425c-2.066-1.668-4.289-4.629-2.522-6.611,2.575-2.889,6.961,2.57,10.751,1.786l-5.086-1.52a7.72,7.72,0,0,1,4.675,5.925,6.709,6.709,0,0,1-8.151-3.323,75.8,75.8,0,0,0,19.672,2.413l-2.035-.254c.811-1.114,2.684,1.049,1.466,1.692-1.034-1.076,1-3.06,2.049-2s-.95,3.074-2.017,2.032a2.064,2.064,0,0,1,3.529-1.035" fill="none"/>
    <path id="Path_209" data-name="Path 209" d="M85.966,640.638l18.455,5.065q-.523-12.074-.625-24.16a16.812,16.812,0,0,0,21.389-.285c7.582-6.8,7.279-18.873,12.894-27.373l13.733,28.851c1.548,3.252,3.356,6.764,6.663,8.191,3.6-6.054.224-13.682.084-20.722a22.676,22.676,0,0,1,16.048-21.632" fill="none"/>
    <path id="Path_210" data-name="Path 210" d="M300.785,592.054a228.873,228.873,0,0,0-22.355,34.861q25.441-6.535,50.424-14.712c-4.069,5.677-8.3,11.79-8.6,18.768a5.109,5.109,0,0,0,.684,3.226c1.273,1.776,3.929,1.6,6.069,1.163a91.361,91.361,0,0,0,17.372-5.415c1.2-.509,2.547-1.05,3.758-.571a4.922,4.922,0,0,1,2.036,1.978l5.442,7.9" fill="none"/>
    <path id="Path_211" data-name="Path 211" d="M225.222,538.776q-.252-24.243.355-48.48a2.6,2.6,0,0,1,.151-1,.538.538,0,0,1,.578-.3l16.621.392c-4.962,14.578-10.052,29.782-11.363,47.1" fill="none"/>
  </g>
</svg>
