<svg xmlns="http://www.w3.org/2000/svg" width="544.846" height="1013.566" viewBox="0 0 544.846 1013.566">
  <g id="Group_60" data-name="Group 60" transform="translate(-698 -55.537)">
    <g id="Group_22" data-name="Group 22" transform="translate(-35.693 578.548)">
      <g id="Group_21" data-name="Group 21">
        <path id="Path_3" data-name="Path 3" d="M1141.032,383.895c15.214-52.192,2.94-139.7-11.934-210.349-171.4-43.955-280.639,0-280.639,0-19.917,67.759-36.01,147-21.848,195.578" fill="none" stroke="#006837" stroke-width="6"/>
        <path id="Path_5" data-name="Path 5" d="M824.822,369.759c70.815-38.094,121.433,4.363,121.433,4.363s4.718-146.29,40.211-149.268,34.715,153.793,34.715,153.793" fill="none" stroke="#006837" stroke-width="6"/>
        <path id="Path_6" data-name="Path 6" d="M1142.255,383.894s-50.618-42.458-121.433-4.363" fill="none" stroke="#006837" stroke-width="6"/>
      </g>
      <path id="Path_217" data-name="Path 217" d="M845.528,183.721s124.359-19.779,285.666,0" fill="none" stroke="#006837" stroke-width="6"/>
      <path id="Path_218" data-name="Path 218" d="M858.591,175.81a4.811,4.811,0,0,1-4.607-.863,5.3,5.3,0,0,1,4.749-.91,2.516,2.516,0,0,1-1.421,3.078l6.986-2.482a18.273,18.273,0,0,1,12.115-3.378,3.987,3.987,0,0,1-1.984,4.3l2.3-1.578a16.67,16.67,0,0,1-9.063-1.111,3.38,3.38,0,0,1,5.649.543,19.222,19.222,0,0,1-8.263,3.275l8.731.33c-.867-1.985.929-4.312,3.032-4.831s4.291.207,6.335.924a2.282,2.282,0,0,1-3.705-.209,9.622,9.622,0,0,1,11.741-3.209c-1.995,3.749-8.7,3.121-9.96-.933A1.492,1.492,0,1,1,880.064,171a5.634,5.634,0,0,1,8.068-.17,6.9,6.9,0,0,1-5.526,2.489,6.882,6.882,0,0,1,9.926-1.141,4.064,4.064,0,0,1-5.229.471c.693-2.046,2.521-3.878,4.681-3.848s4.059,2.63,2.928,4.471c-1.25,2.033-5.176.469-4.685-1.866s4.715-2.186,5.04.178a2.474,2.474,0,0,1-1.735-3.926,2.63,2.63,0,0,1,4.268,1.135,2.8,2.8,0,0,1-3.244,3.17,3.2,3.2,0,1,1,4.991,2.4,5.043,5.043,0,0,1-.759-6.241,2.961,2.961,0,0,1-2.3,4.039,4.106,4.106,0,0,1,5.082-1.912c-.4.432-1.162-.263-.977-.825s.817-.825,1.385-.991c3-.878,7.63.687,6.643,3.652l-3.772-1.125c.579.415,1.341-.449,1.194-1.146a5.561,5.561,0,0,0-1.141-1.782,3.65,3.65,0,0,1,2.519-5.394c1.608,1.837-.163,5.311-2.594,5.089a4.542,4.542,0,0,1,4.44-4.479,4.118,4.118,0,0,1,3.755,4.862,3.765,3.765,0,0,1-5.6,2.039,2.6,2.6,0,0,1,4.364.4c-2.088.483-3.063-3.113-1.368-4.425s4.2-.672,6.017.46a4.03,4.03,0,0,1-5.776,1.85,2.915,2.915,0,0,1,4.772-.459c-2.013,1.625-4.943-2.213-3.118-4.047s5.432-.086,5.691,2.488-2.057,4.883-4.6,5.364c-.578-2.987,2.978-5.88,5.785-4.705a3.191,3.191,0,0,1-2.617,2.95,4.205,4.205,0,0,1,6.04,2.822c-2.816.705-4.439-4.453-1.727-5.488a2.372,2.372,0,0,1-.706,3.376A3.633,3.633,0,0,1,926.863,168a4.356,4.356,0,0,1-3.661.652c.55-1.8,3.985-.788,3.471,1.023-1.112-1.4-2.29-3.175-1.653-4.849s4-1.235,3.43.464c-.445,2.319-4.2,2.97-5.4.936s1.188-5,3.432-4.27c2.56.837,2.645,4.729.891,6.773a4.108,4.108,0,0,1,3.441-4.124c1.958-.187,3.906,1.787,3.433,3.7s-3.5,2.589-4.56.933a2.349,2.349,0,0,1,3.245-2.489,1.927,1.927,0,0,1-.959,2.574,3.676,3.676,0,0,1-.23-4.862c1.238-1.291,3.881-.842,4.313.894s-2.3,3.269-3.362,1.827c3.182.084,5.469,4.167,3.879,6.925a2.005,2.005,0,0,1-.858.873c-1.114.5-2.224-.724-2.713-1.844a13.671,13.671,0,0,1-.709-8.766,2.892,2.892,0,1,1-.6,5.726c-.565-2.476,2.994-4.656,4.944-3.029a3.168,3.168,0,0,1,5.2-3.6,3.011,3.011,0,1,1-5.429-2.432,6.487,6.487,0,0,1,4.258,1.79c.533.512.956,1.437.4,1.919s-1.059-1.093-.394-.77a2.261,2.261,0,1,1-3.869,1.108,3.649,3.649,0,0,1,3.632.206c1,.786,1.147,2.588.062,3.254s-2.743-.853-1.96-1.857a5.454,5.454,0,0,1,5.793.4,3.871,3.871,0,0,1-2.21-2.2,3.512,3.512,0,1,1,3.62,6.008,3.6,3.6,0,0,0-3.137-3.259,6.961,6.961,0,0,1,4.426-.514c-1.75-.67.252-3.711,1.933-2.882s1.784,3.248,1.083,4.986c-1.254.282-1.941-1.724-1.113-2.706s2.271-1.1,3.554-1.153l10.675-.409a53.2,53.2,0,0,1-14.618-.483,6.432,6.432,0,0,1,7.186-1c-3.049.139-5.382-3.846-3.767-6.437a4.167,4.167,0,0,1-.234,6.18l5.068,2.2a5.918,5.918,0,0,1-2.811-4.294c3.806-1.157,7.974,3.307,6.56,7.025-1.045.01-.989-1.642-.377-2.489a4.818,4.818,0,0,1,4.164-2.217c1.639.168,3.075,1.951,2.468,3.483s-3.419,1.446-3.618-.19c1.431.978-.436,3.307-2.157,3.113s-3.153-1.507-4.869-1.742a7.44,7.44,0,0,1,9.024-1.064c-.791,1.635-3.626,1.112-4.236-.6s.557-3.645,2.147-4.522a11.667,11.667,0,0,1,5.3-1.022,3.991,3.991,0,1,1-5.922-4.961c4.05,1.8,5.366,7.844,2.428,11.159a12.665,12.665,0,0,1,4.386-2.067c.7-.176,1.643-.18,1.923.486s-1.245.982-.981.309c2.755-1.224,6.29,1.812,5.5,4.72-2.528-.512-3.388-4.47-1.3-5.985,2.142.215,2.155,3.9.169,4.728s-4.3-.609-5.342-2.492a4.238,4.238,0,0,1-.61-2.161,2.932,2.932,0,1,1,5.755.885c-.01-1.578,2.589-2.265,3.36-.89-1.47,1.315-4.088-.685-3.6-2.6s3.007-2.736,4.827-1.977a6.857,6.857,0,0,1,3.543,4.5,5.4,5.4,0,0,1-.1,4.174c-.693,1.252-2.518,1.919-3.624,1.011a4.266,4.266,0,0,1,3.856-3.977,2.448,2.448,0,0,1-3.046-.559c-.015-2.05,2.828-3.189,4.587-2.137s2.348,3.4,2.022,5.424c-2.69-2.434-1.255-7.765,2.293-8.52,1.891,1.069,3.432,3.171,3.006,5.3s-3.552,3.4-4.921,1.71a5.273,5.273,0,0,1,5.142-3.375,3.305,3.305,0,0,1-.822,4.51,3.858,3.858,0,0,1,2.884-5.75,2.941,2.941,0,0,1-2.938,4.173A3.757,3.757,0,0,1,996,172.005a3.545,3.545,0,1,1,4.693-3.688c-2.446-.266-2.067-4.9.39-4.763s2.326,4.781-.135,4.777c.569-2.236,4.838-1.158,4.277,1.08-.822,1.588-3.6.735-4.015-1s.74-3.475,2.085-4.654a2.647,2.647,0,0,1,1.143,2.306,5.4,5.4,0,0,1-1.484-7.313,4.815,4.815,0,0,1,7.219-.47c1.814,2.1.762,5.987-1.916,6.715-2.3-.786-4.573-3.663-2.834-5.364,1.506-1.473,4.266.325,4.41,2.427s-1.275,3.951-2.617,5.575l.8-4.734a13.764,13.764,0,0,1,11.554,2.345c.673.659-1,1.586-1.422.744s.571-1.831,1.512-1.785a4.127,4.127,0,0,1,2.409,1.358c-2.467,1.292-5.932-1.1-5.6-3.867a3.762,3.762,0,0,1,4.561,2.762,11.635,11.635,0,0,1-9.231.97,6.144,6.144,0,0,1,7.679,4.693c-.722,1.356-3.294.6-3.164-.934a6.35,6.35,0,0,1,7.654,1.113,7.541,7.541,0,0,1-7.949-3.128c.933-3.382,6.829-3.451,7.841-.091s-3.941,6.559-6.587,4.255a11,11,0,0,1,9.542-4.573,7.094,7.094,0,0,1-5.525,1.278,8.839,8.839,0,0,1,11.454-.784,8.435,8.435,0,0,1-6.752.694,2.446,2.446,0,0,1,3.076.1,10.394,10.394,0,0,1-6.455-2.827,9.31,9.31,0,0,1,6.117-.988c-.889,2.046-4.573.074-3.877-2.046s3.769-2.542,5.64-1.326,2.812,3.411,3.65,5.479a3.112,3.112,0,0,1,4.283.785,13.48,13.48,0,0,1-7.149,1.957,7.157,7.157,0,0,1,5.529.8,6.835,6.835,0,0,1-1.62-3.828,12.142,12.142,0,0,1,9.414-.95,70.525,70.525,0,0,1-9.488,7.759c2.972,1.268,5.825-1.787,8.049-4.13s6.753-3.918,8.129-.995a3.716,3.716,0,0,1-3.769-2.209c3.367-1.048,6.468,4.155,3.945,6.618.272-3.218,5.511-4.38,7.118-1.579a7.5,7.5,0,0,1-8.6,3.3,5.644,5.644,0,0,1,4.463-2.407,15.076,15.076,0,0,1-6.5-4.972,4.593,4.593,0,0,1,4.093-2.295c.34,1.787.5,3.782-.519,5.29s-3.657,1.912-4.55.326c-.733-1.3.215-3.035,1.565-3.677a8.263,8.263,0,0,1,4.411-.352c.11.835-.891-.553-.213-1.054a8.088,8.088,0,0,1,11.565,2.855,2.279,2.279,0,0,1-3.005-.629,2.494,2.494,0,0,1,4.134-.618c-.593,1.723-3.572,1.734-4.178.016a9.065,9.065,0,0,1,8.51,4.463,7.653,7.653,0,0,1-5.35,1.077,11.57,11.57,0,0,1,9.862.975,4.226,4.226,0,0,1-2.26-4.892c3.843-1.53,8.492,2.951,7.1,6.848-1.2-.712.161-3.011,1.363-2.294a3.1,3.1,0,0,1-5.2-.3,3.981,3.981,0,0,1,6.259.662l11.5.34a2.032,2.032,0,0,1-3.276-.659c.79-2.063,4.72-.194,3.619,1.721a5.251,5.251,0,0,1-3.994-3.427,2.744,2.744,0,0,1,3.868-.03,23.41,23.41,0,0,1-12.921-2.754,7.984,7.984,0,0,1,10,5,2.507,2.507,0,0,1-2.9-2.7,51.112,51.112,0,0,1,14.6,7.425c-2.066-1.668-4.289-4.629-2.522-6.611,2.575-2.889,6.961,2.57,10.751,1.786l-5.086-1.52a7.72,7.72,0,0,1,4.675,5.925,6.709,6.709,0,0,1-8.151-3.323,75.8,75.8,0,0,0,19.672,2.413l-2.035-.254c.811-1.114,2.684,1.049,1.466,1.692-1.034-1.076,1-3.06,2.049-2s-.95,3.074-2.017,2.032a2.064,2.064,0,0,1,3.529-1.035" fill="none" stroke="#006837" stroke-width="6"/>
      <path id="Path_219" data-name="Path 219" d="M840.966,326.638l18.455,5.065q-.523-12.074-.625-24.16a16.812,16.812,0,0,0,21.389-.285c7.582-6.8,7.279-18.873,12.894-27.373l13.733,28.851c1.548,3.252,3.356,6.764,6.663,8.191,3.6-6.054.224-13.682.084-20.722a22.676,22.676,0,0,1,16.048-21.632" fill="none" stroke="#006837" stroke-width="6"/>
      <path id="Path_220" data-name="Path 220" d="M1055.785,278.054a228.87,228.87,0,0,0-22.355,34.861q25.441-6.535,50.424-14.712c-4.069,5.677-8.3,11.79-8.6,18.768a5.108,5.108,0,0,0,.684,3.226c1.273,1.776,3.929,1.6,6.069,1.163a91.363,91.363,0,0,0,17.372-5.415c1.2-.509,2.547-1.05,3.758-.571a4.923,4.923,0,0,1,2.036,1.978l5.442,7.9" fill="none" stroke="#006837" stroke-width="6"/>
      <path id="Path_221" data-name="Path 221" d="M980.222,224.776q-.252-24.243.355-48.48a2.6,2.6,0,0,1,.151-1,.538.538,0,0,1,.578-.3l16.621.392c-4.962,14.578-10.052,29.782-11.363,47.1" fill="none" stroke="#006837" stroke-width="6"/>
    </g>
    <g id="Ellipse_4" data-name="Ellipse 4" transform="translate(706 257)" fill="#fca854" stroke="#f79999" stroke-width="1" opacity="0">
      <circle cx="33" cy="33" r="33" stroke="none"/>
      <circle cx="33" cy="33" r="32.5" fill="none"/>
    </g>
    <g id="Ellipse_6" data-name="Ellipse 6" transform="translate(698 205)" fill="#fca854" stroke="#f79999" stroke-width="1" opacity="0">
      <ellipse cx="37" cy="38" rx="37" ry="38" stroke="none"/>
      <ellipse cx="37" cy="38" rx="36.5" ry="37.5" fill="none"/>
    </g>
    <g id="Path_8" data-name="Path 8" transform="translate(740 706)" fill="#ffe6e6" opacity="0">
      <path d="M 37 79.5 C 32.07728958129883 79.5 27.30168914794922 78.4576416015625 22.80586051940918 76.40188598632812 C 18.46036911010742 74.41487121582031 14.55698013305664 71.56948089599609 11.20409965515137 67.94475555419922 C 7.848659992218018 64.31724548339844 5.213990211486816 60.09242248535156 3.373280048370361 55.38763427734375 C 1.466709971427917 50.51452255249023 0.5 45.33737182617188 0.5 40.00000381469727 C 0.5 33.70934295654297 0.7072299718856812 29.64473342895508 1.19293999671936 26.40896415710449 C 1.749660015106201 22.70008277893066 2.694659948348999 20.06345367431641 4.166910171508789 18.11134338378906 C 5.683559894561768 16.10037422180176 7.792890071868896 14.76501369476318 10.80512046813965 13.90889358520508 C 13.73320960998535 13.07668304443359 17.56414985656738 12.68908309936523 22.86133003234863 12.68908309936523 C 24.31109046936035 12.68908309936523 28.03616905212402 14.46365356445312 31.02931976318359 15.88953304290771 C 33.35459136962891 16.99725532531738 35.5538215637207 18.04494094848633 36.79991912841797 18.36095809936523 C 41.40204238891602 21.30817413330078 47.36304473876953 22.54670715332031 53.12899017333984 23.74481391906738 C 58.49092864990234 24.85898399353027 63.55550003051758 25.91135406494141 67.34417724609375 28.22251319885254 C 69.34291839599609 29.44177436828613 70.80539703369141 30.90523338317871 71.81519317626953 32.69651412963867 C 72.94889831542969 34.70759201049805 73.5 37.09658432006836 73.5 40.00000381469727 C 73.5 45.33737182617188 72.53328704833984 50.51452255249023 70.62671661376953 55.38763427734375 C 68.7860107421875 60.09242248535156 66.15133666992188 64.31724548339844 62.7958984375 67.94475555419922 C 59.44301986694336 71.56948089599609 55.53963088989258 74.41487121582031 51.19414138793945 76.40188598632812 C 46.69831085205078 78.4576416015625 41.92271041870117 79.5 37 79.5 Z" stroke="none"/>
      <path d="M 22.861328125 13.1890869140625 C 17.61167907714844 13.1890869140625 13.82416915893555 13.57063293457031 10.94181060791016 14.38984680175781 C 8.039726257324219 15.21465301513672 6.013801574707031 16.49285125732422 4.566108703613281 18.41240692138672 C 3.145988464355469 20.29538726806641 2.23126220703125 22.85993194580078 1.687400817871094 26.48318481445312 C 1.205581665039062 29.69308471679688 1 33.73549270629883 1 40.00000381469727 C 1 45.27478408813477 1.955146789550781 50.39064407348633 3.838912963867188 55.20546340942383 C 5.656776428222656 59.85186386108398 8.258277893066406 64.02375793457031 11.57115173339844 67.60523223876953 C 14.87889099121094 71.18117523193359 18.7287483215332 73.98780059814453 23.01377868652344 75.94717407226562 C 27.44390106201172 77.97288513183594 32.14953994750977 79 37 79 C 41.85046005249023 79 46.55609893798828 77.97288513183594 50.98622131347656 75.94717407226562 C 55.27124786376953 73.98780059814453 59.12110900878906 71.18117523193359 62.42884826660156 67.60523223876953 C 65.74172210693359 64.02375793457031 68.34322357177734 59.85186386108398 70.16108703613281 55.20546340942383 C 72.04485321044922 50.39064407348633 73 45.27478408813477 73 40.00000381469727 C 73 34.71831512451172 71.12008666992188 31.11156463623047 67.08380126953125 28.64936447143555 C 63.3690185546875 26.38328552246094 58.34561920166016 25.33946228027344 53.02726745605469 24.23435974121094 C 47.24481582641602 23.03281402587891 41.26740264892578 21.79074859619141 36.59757995605469 18.82493591308594 C 35.29896926879883 18.47736358642578 33.2130126953125 17.483642578125 30.81430053710938 16.3409423828125 C 28.02210998535156 15.01079559326172 24.19807815551758 13.1890869140625 22.861328125 13.1890869140625 M 22.861328125 12.1890869140625 C 25.55868148803711 12.1890869140625 34.20246887207031 17.23973083496094 37 17.8951416015625 C 49.885498046875 26.221923828125 74 20.82467651367188 74 40.00000381469727 C 74 62.09139251708984 57.43453216552734 80 37 80 C 16.56547164916992 80 0 62.09139251708984 0 40.00000381469727 C 0 17.90859985351562 2.426788330078125 12.1890869140625 22.861328125 12.1890869140625 Z" stroke="none" fill="#000"/>
    </g>
    <g id="Path_9" data-name="Path 9" transform="translate(1100.773 706)" fill="#ffe6e6" opacity="0">
      <path d="M 37 79.5 C 32.07728958129883 79.5 27.30168914794922 78.4576416015625 22.80586051940918 76.40188598632812 C 18.46036911010742 74.41487121582031 14.55698013305664 71.56948089599609 11.20409965515137 67.94475555419922 C 7.848659992218018 64.31724548339844 5.213990211486816 60.09242248535156 3.373280048370361 55.38763427734375 C 1.466709971427917 50.51452255249023 0.5 45.33737182617188 0.5 40.00000381469727 C 0.5 37.09658432006836 1.051100015640259 34.70759201049805 2.184809923171997 32.69651412963867 C 3.194600105285645 30.90523338317871 4.657080173492432 29.44177436828613 6.655819892883301 28.22251319885254 C 10.44449996948242 25.91135406494141 15.50907039642334 24.85898399353027 20.87100982666016 23.74481391906738 C 26.63695526123047 22.54670715332031 32.59795761108398 21.30817413330078 37.20008087158203 18.36095809936523 C 38.4461784362793 18.04494094848633 40.64540863037109 16.99725532531738 42.9706916809082 15.88953304290771 C 45.96384048461914 14.46364307403564 49.68891906738281 12.68908309936523 51.138671875 12.68908309936523 C 56.43584823608398 12.68908309936523 60.26679992675781 13.07668304443359 63.19488143920898 13.90889358520508 C 66.20710754394531 14.76501369476318 68.31645202636719 16.10036277770996 69.83309173583984 18.11134338378906 C 71.30534362792969 20.06345367431641 72.25034332275391 22.70008277893066 72.80706024169922 26.40896415710449 C 73.29277038574219 29.64473342895508 73.5 33.70934295654297 73.5 40.00000381469727 C 73.5 45.33737182617188 72.53328704833984 50.51452255249023 70.62671661376953 55.38763427734375 C 68.7860107421875 60.09242248535156 66.15133666992188 64.31724548339844 62.7958984375 67.94475555419922 C 59.44301986694336 71.56948089599609 55.53963088989258 74.41487121582031 51.19414138793945 76.40188598632812 C 46.69831085205078 78.4576416015625 41.92271041870117 79.5 37 79.5 Z" stroke="none"/>
      <path d="M 51.138671875 13.1890869140625 C 49.80191802978516 13.1890869140625 45.97788238525391 15.01079559326172 43.18569183349609 16.3409423828125 C 40.7869873046875 17.483642578125 38.70103073120117 18.47736358642578 37.40242004394531 18.82493591308594 C 32.73259735107422 21.79074859619141 26.75518417358398 23.03281402587891 20.97272872924805 24.23435974121094 C 15.65438079833984 25.33946228027344 10.6309814453125 26.38328552246094 6.91619873046875 28.64936447143555 C 2.879913330078125 31.11156463623047 1 34.71831512451172 1 40.00000381469727 C 1 45.27478408813477 1.955146789550781 50.39064407348633 3.838912963867188 55.20546340942383 C 5.656776428222656 59.85186386108398 8.258277893066406 64.02375793457031 11.57115173339844 67.60523223876953 C 14.87889099121094 71.18117523193359 18.7287483215332 73.98780059814453 23.01377868652344 75.94717407226562 C 27.44390106201172 77.97288513183594 32.14953994750977 79 37 79 C 41.85046005249023 79 46.55609893798828 77.97288513183594 50.98622131347656 75.94717407226562 C 55.27124786376953 73.98780059814453 59.12110900878906 71.18117523193359 62.42884826660156 67.60523223876953 C 65.74172210693359 64.02375793457031 68.34322357177734 59.85186386108398 70.16108703613281 55.20546340942383 C 72.04485321044922 50.39064407348633 73 45.27478408813477 73 40.00000381469727 C 73 33.73549270629883 72.79441833496094 29.69308471679688 72.31259918212891 26.48318481445312 C 71.76873779296875 22.85993194580078 70.85400390625 20.29538726806641 69.43389129638672 18.41240692138672 C 67.98619842529297 16.49285125732422 65.96026611328125 15.21465301513672 63.05818176269531 14.38984680175781 C 60.17583084106445 13.57063293457031 56.38832092285156 13.1890869140625 51.138671875 13.1890869140625 M 51.138671875 12.1890869140625 C 71.57319641113281 12.1890869140625 74 17.90859985351562 74 40.00000381469727 C 74 62.09139251708984 57.43453216552734 80 37 80 C 16.56547164916992 80 0 62.09139251708984 0 40.00000381469727 C 0 20.82467651367188 24.11449813842773 26.221923828125 37 17.8951416015625 C 39.79753112792969 17.23973083496094 48.44131088256836 12.1890869140625 51.138671875 12.1890869140625 Z" stroke="none" fill="#000"/>
    </g>
    <path id="Union_1" data-name="Union 1" d="M4637-1012.83v-56.947c0-4.613,18.658-4.069,25.058-4.209,12.724-.283,18.958,4.209,18.958,4.209v56.693h0v.255c0,4.074-18.658,3.594-25.058,3.718-.388.008-.772.011-1.148.011C4642.857-1009.1,4637-1012.83,4637-1012.83Z" transform="translate(-3806.7 2006.605)" fill="#ffe6e6" stroke="#000" stroke-width="1" opacity="0"/>
    <path id="Union_2" data-name="Union 2" d="M4637-1016.6v-53.438c0-4.329,18.658-3.819,25.058-3.95,12.724-.266,18.958,3.95,18.958,3.95v53.2h0v.239c0,3.823-18.658,3.372-25.058,3.489-.388.007-.772.011-1.148.011C4642.857-1013.1,4637-1016.6,4637-1016.6Z" transform="translate(-3608.7 2016.605)" fill="#ffe6e6" stroke="#000" stroke-width="1" opacity="0"/>
    <g id="Group_1" data-name="Group 1" transform="translate(-241 33.557)" opacity="0">
      <g id="Ellipse_1" data-name="Ellipse 1" transform="translate(981 84)" fill="#ffe6e6" stroke="#000" stroke-width="7">
        <ellipse cx="220" cy="211.5" rx="220" ry="211.5" stroke="none"/>
        <ellipse cx="220" cy="211.5" rx="216.5" ry="208" fill="none"/>
      </g>
      <path id="Path_1" data-name="Path 1" d="M-3710.233,1827.684l67.993-25.9s31.568,3.505-88.4-206" transform="translate(5047 -1120)" fill="none" stroke="#010101" stroke-width="5"/>
      <path id="Path_2" data-name="Path 2" d="M-3658.893,1827.684l-67.993-25.9s-31.568,3.505,88.4-206" transform="translate(4720 -1120)" fill="none" stroke="#010101" stroke-width="5"/>
      <path id="Path_3-2" data-name="Path 3" d="M-3610.1,1711.733s-95.346,224.021-66.674,322.381" transform="translate(4712 -1120)" fill="none" stroke="#010101" stroke-width="5"/>
      <path id="Path_4" data-name="Path 4" d="M-3682.153,1711.733s68.957,223.793,40.285,322.153" transform="translate(4991.515 -1105)" fill="none" stroke="#010101" stroke-width="5"/>
      <path id="Path_5-2" data-name="Path 5" d="M-3684.913,2029.75c70.815-38.094,121.433,4.363,121.433,4.363s4.718-146.29,40.211-149.268,34.715,153.793,34.715,153.793" transform="translate(4718.35 -1115)" fill="none" stroke="#000" stroke-width="5"/>
      <path id="Path_6-2" data-name="Path 6" d="M-3563.48,2034.113s-50.618-42.458-121.433-4.363" transform="translate(4914.35 -1105.228)" fill="none" stroke="#000" stroke-width="5"/>
    </g>
    <circle id="Ellipse_2" data-name="Ellipse 2" cx="15.5" cy="15.5" r="15.5" transform="translate(858 291.534)" opacity="0"/>
    <circle id="Ellipse_3" data-name="Ellipse 3" cx="15.5" cy="15.5" r="15.5" transform="translate(1046.896 291.534)" opacity="0"/>
    <path id="Path_7" data-name="Path 7" d="M-3844.714,1545.591s79.726,99.389,173.4,5.719" transform="translate(4718.214 -1122)" fill="none" stroke="#000" stroke-width="4" opacity="0"/>
    <g id="Ellipse_5" data-name="Ellipse 5" transform="translate(718 196)" fill="#fca854" stroke="#f79999" stroke-width="1" opacity="0">
      <circle cx="38" cy="38" r="38" stroke="none"/>
      <circle cx="38" cy="38" r="37.5" fill="none"/>
    </g>
    <g id="Ellipse_7" data-name="Ellipse 7" transform="matrix(0.891, 0.454, -0.454, 0.891, 735.963, 176.597)" fill="#fca854" stroke="#f79999" stroke-width="1" opacity="0">
      <circle cx="33" cy="33" r="33" stroke="none"/>
      <circle cx="33" cy="33" r="32.5" fill="none"/>
    </g>
    <g id="Ellipse_10" data-name="Ellipse 10" transform="matrix(0.891, 0.454, -0.454, 0.891, 791.963, 132.212)" fill="#fca854" stroke="#f79999" stroke-width="1" opacity="0">
      <circle cx="33" cy="33" r="33" stroke="none"/>
      <circle cx="33" cy="33" r="32.5" fill="none"/>
    </g>
    <g id="Ellipse_13" data-name="Ellipse 13" transform="matrix(0.891, 0.454, -0.454, 0.891, 872.029, 124.212)" fill="#fca854" stroke="#f79999" stroke-width="1" opacity="0">
      <circle cx="33" cy="33" r="33" stroke="none"/>
      <circle cx="33" cy="33" r="32.5" fill="none"/>
    </g>
    <circle id="Ellipse_16" data-name="Ellipse 16" cx="33" cy="33" r="33" transform="matrix(0.891, 0.454, -0.454, 0.891, 921.931, 125.273)" fill="#fdb266" opacity="0"/>
    <g id="Ellipse_19" data-name="Ellipse 19" transform="matrix(0.891, 0.454, -0.454, 0.891, 969.226, 132.904)" fill="#fca854" stroke="#f79999" stroke-width="1" opacity="0">
      <circle cx="33" cy="33" r="33" stroke="none"/>
      <circle cx="33" cy="33" r="32.5" fill="none"/>
    </g>
    <g id="Ellipse_22" data-name="Ellipse 22" transform="matrix(0.891, 0.454, -0.454, 0.891, 989.963, 116.23)" fill="#fca854" stroke="#f79999" stroke-width="1" opacity="0">
      <circle cx="33" cy="33" r="33" stroke="none"/>
      <circle cx="33" cy="33" r="32.5" fill="none"/>
    </g>
    <circle id="Ellipse_25" data-name="Ellipse 25" cx="33" cy="33" r="33" transform="matrix(0.891, 0.454, -0.454, 0.891, 1044.963, 157.195)" fill="#fdb266" opacity="0"/>
    <circle id="Ellipse_28" data-name="Ellipse 28" cx="33" cy="33" r="33" transform="matrix(0.891, 0.454, -0.454, 0.891, 918.964, 112.81)" fill="#fdb266" opacity="0"/>
    <g id="Ellipse_31" data-name="Ellipse 31" transform="matrix(0.891, 0.454, -0.454, 0.891, 836.308, 151.316)" fill="#fca854" stroke="#f79999" stroke-width="1" opacity="0">
      <circle cx="33" cy="33" r="33" stroke="none"/>
      <circle cx="33" cy="33" r="32.5" fill="none"/>
    </g>
    <circle id="Ellipse_34" data-name="Ellipse 34" cx="33" cy="33" r="33" transform="matrix(0.891, 0.454, -0.454, 0.891, 775.308, 214.121)" fill="#fdb266" opacity="0"/>
    <circle id="Ellipse_37" data-name="Ellipse 37" cx="33" cy="33" r="33" transform="matrix(0.891, 0.454, -0.454, 0.891, 1092.359, 195.41)" fill="#fdb266" opacity="0"/>
    <circle id="Ellipse_40" data-name="Ellipse 40" cx="33" cy="33" r="33" transform="matrix(0.891, 0.454, -0.454, 0.891, 1126.029, 248.035)" fill="#fdb266" opacity="0"/>
    <g id="Ellipse_46" data-name="Ellipse 46" transform="matrix(0.891, 0.454, -0.454, 0.891, 853.898, 105.501)" fill="#fca854" stroke="#f79999" stroke-width="1" opacity="0">
      <circle cx="33" cy="33" r="33" stroke="none"/>
      <circle cx="33" cy="33" r="32.5" fill="none"/>
    </g>
    <g id="Ellipse_8" data-name="Ellipse 8" transform="matrix(0.891, 0.454, -0.454, 0.891, 774.349, 127.694)" fill="#fca854" stroke="#f79999" stroke-width="1" opacity="0">
      <circle cx="38" cy="38" r="38" stroke="none"/>
      <circle cx="38" cy="38" r="37.5" fill="none"/>
    </g>
    <g id="Ellipse_11" data-name="Ellipse 11" transform="matrix(0.891, 0.454, -0.454, 0.891, 830.349, 83.309)" fill="#fca854" stroke="#f79999" stroke-width="1" opacity="0">
      <circle cx="38" cy="38" r="38" stroke="none"/>
      <circle cx="38" cy="38" r="37.5" fill="none"/>
    </g>
    <g id="Ellipse_14" data-name="Ellipse 14" transform="matrix(0.891, 0.454, -0.454, 0.891, 910.414, 75.309)" fill="#fca854" stroke="#f79999" stroke-width="1" opacity="0">
      <circle cx="38" cy="38" r="38" stroke="none"/>
      <circle cx="38" cy="38" r="37.5" fill="none"/>
    </g>
    <g id="Ellipse_17" data-name="Ellipse 17" transform="matrix(0.891, 0.454, -0.454, 0.891, 960.316, 76.37)" fill="#fca854" stroke="#f79999" stroke-width="1" opacity="0">
      <circle cx="38" cy="38" r="38" stroke="none"/>
      <circle cx="38" cy="38" r="37.5" fill="none"/>
    </g>
    <g id="Ellipse_20" data-name="Ellipse 20" transform="matrix(0.891, 0.454, -0.454, 0.891, 1015.316, 101.352)" fill="#fca854" stroke="#f79999" stroke-width="1" opacity="0">
      <circle cx="38" cy="38" r="38" stroke="none"/>
      <circle cx="38" cy="38" r="37.5" fill="none"/>
    </g>
    <g id="Ellipse_23" data-name="Ellipse 23" transform="matrix(0.891, 0.454, -0.454, 0.891, 1028.349, 67.327)" fill="#fca854" stroke="#f79999" stroke-width="1" opacity="0">
      <circle cx="38" cy="38" r="38" stroke="none"/>
      <circle cx="38" cy="38" r="37.5" fill="none"/>
    </g>
    <g id="Ellipse_29" data-name="Ellipse 29" transform="matrix(0.891, 0.454, -0.454, 0.891, 957.349, 63.906)" fill="#fca854" stroke="#f79999" stroke-width="1" opacity="0">
      <circle cx="38" cy="38" r="38" stroke="none"/>
      <circle cx="38" cy="38" r="37.5" fill="none"/>
    </g>
    <g id="Ellipse_32" data-name="Ellipse 32" transform="matrix(0.891, 0.454, -0.454, 0.891, 874.694, 102.413)" fill="#fca854" stroke="#f79999" stroke-width="1" opacity="0">
      <circle cx="38" cy="38" r="38" stroke="none"/>
      <circle cx="38" cy="38" r="37.5" fill="none"/>
    </g>
    <g id="Ellipse_35" data-name="Ellipse 35" transform="matrix(0.891, 0.454, -0.454, 0.891, 813.694, 165.218)" fill="#fca854" stroke="#f79999" stroke-width="1" opacity="0">
      <circle cx="38" cy="38" r="38" stroke="none"/>
      <circle cx="38" cy="38" r="37.5" fill="none"/>
    </g>
    <g id="Ellipse_38" data-name="Ellipse 38" transform="matrix(0.891, 0.454, -0.454, 0.891, 1130.745, 146.507)" fill="#fca854" stroke="#f79999" stroke-width="1" opacity="0">
      <circle cx="38" cy="38" r="38" stroke="none"/>
      <circle cx="38" cy="38" r="37.5" fill="none"/>
    </g>
    <g id="Ellipse_41" data-name="Ellipse 41" transform="matrix(0.891, 0.454, -0.454, 0.891, 1164.414, 199.131)" fill="#fca854" stroke="#f79999" stroke-width="1" opacity="0">
      <circle cx="38" cy="38" r="38" stroke="none"/>
      <circle cx="38" cy="38" r="37.5" fill="none"/>
    </g>
    <circle id="Ellipse_44" data-name="Ellipse 44" cx="38" cy="38" r="38" transform="matrix(0.891, 0.454, -0.454, 0.891, 1175.13, 249.787)" fill="#fdb266" opacity="0"/>
    <circle id="Ellipse_47" data-name="Ellipse 47" cx="38" cy="38" r="38" transform="matrix(0.891, 0.454, -0.454, 0.891, 892.283, 56.598)" fill="#fdb266" opacity="0"/>
    <ellipse id="Ellipse_9" data-name="Ellipse 9" cx="37" cy="38" rx="37" ry="38" transform="matrix(0.891, 0.454, -0.454, 0.891, 752.443, 126.633)" fill="#fdb266" opacity="0"/>
    <g id="Ellipse_12" data-name="Ellipse 12" transform="matrix(0.891, 0.454, -0.454, 0.891, 808.443, 82.248)" fill="#fca854" stroke="#f79999" stroke-width="1" opacity="0">
      <ellipse cx="37" cy="38" rx="37" ry="38" stroke="none"/>
      <ellipse cx="37" cy="38" rx="36.5" ry="37.5" fill="none"/>
    </g>
    <g id="Ellipse_15" data-name="Ellipse 15" transform="matrix(0.891, 0.454, -0.454, 0.891, 888.508, 74.248)" fill="#fca854" stroke="#f79999" stroke-width="1" opacity="0">
      <ellipse cx="37" cy="38" rx="37" ry="38" stroke="none"/>
      <ellipse cx="37" cy="38" rx="36.5" ry="37.5" fill="none"/>
    </g>
    <g id="Ellipse_18" data-name="Ellipse 18" transform="matrix(0.891, 0.454, -0.454, 0.891, 938.41, 75.309)" fill="#fca854" stroke="#f79999" stroke-width="1" opacity="0">
      <ellipse cx="37" cy="38" rx="37" ry="38" stroke="none"/>
      <ellipse cx="37" cy="38" rx="36.5" ry="37.5" fill="none"/>
    </g>
    <ellipse id="Ellipse_21" data-name="Ellipse 21" cx="37" cy="38" rx="37" ry="38" transform="matrix(0.891, 0.454, -0.454, 0.891, 993.41, 100.291)" fill="#fdb266" opacity="0"/>
    <ellipse id="Ellipse_24" data-name="Ellipse 24" cx="37" cy="38" rx="37" ry="38" transform="matrix(0.891, 0.454, -0.454, 0.891, 1006.443, 66.266)" fill="#fdb266" opacity="0"/>
    <g id="Ellipse_27" data-name="Ellipse 27" transform="matrix(0.891, 0.454, -0.454, 0.891, 1061.443, 107.23)" fill="#fca854" stroke="#f79999" stroke-width="1" opacity="0">
      <ellipse cx="37" cy="38" rx="37" ry="38" stroke="none"/>
      <ellipse cx="37" cy="38" rx="36.5" ry="37.5" fill="none"/>
    </g>
    <g id="Ellipse_30" data-name="Ellipse 30" transform="matrix(0.891, 0.454, -0.454, 0.891, 935.443, 62.845)" fill="#fca854" stroke="#f79999" stroke-width="1" opacity="0">
      <ellipse cx="37" cy="38" rx="37" ry="38" stroke="none"/>
      <ellipse cx="37" cy="38" rx="36.5" ry="37.5" fill="none"/>
    </g>
    <ellipse id="Ellipse_33" data-name="Ellipse 33" cx="37" cy="38" rx="37" ry="38" transform="matrix(0.891, 0.454, -0.454, 0.891, 852.788, 101.352)" fill="#fdb266" opacity="0"/>
    <g id="Ellipse_36" data-name="Ellipse 36" transform="matrix(0.891, 0.454, -0.454, 0.891, 791.788, 164.157)" fill="#fca854" stroke="#f79999" stroke-width="1" opacity="0">
      <ellipse cx="37" cy="38" rx="37" ry="38" stroke="none"/>
      <ellipse cx="37" cy="38" rx="36.5" ry="37.5" fill="none"/>
    </g>
    <ellipse id="Ellipse_39" data-name="Ellipse 39" cx="37" cy="38" rx="37" ry="38" transform="matrix(0.891, 0.454, -0.454, 0.891, 1108.839, 145.446)" fill="#fdb266" opacity="0"/>
    <ellipse id="Ellipse_42" data-name="Ellipse 42" cx="37" cy="38" rx="37" ry="38" transform="matrix(0.891, 0.454, -0.454, 0.891, 1142.508, 198.071)" fill="#fdb266" opacity="0"/>
    <g id="Ellipse_45" data-name="Ellipse 45" transform="matrix(0.891, 0.454, -0.454, 0.891, 1153.224, 248.726)" fill="#fca854" stroke="#f79999" stroke-width="1" opacity="0">
      <ellipse cx="37" cy="38" rx="37" ry="38" stroke="none"/>
      <ellipse cx="37" cy="38" rx="36.5" ry="37.5" fill="none"/>
    </g>
    <g id="Ellipse_48" data-name="Ellipse 48" transform="matrix(0.891, 0.454, -0.454, 0.891, 870.377, 55.537)" fill="#fca854" stroke="#f79999" stroke-width="1" opacity="0">
      <ellipse cx="37" cy="38" rx="37" ry="38" stroke="none"/>
      <ellipse cx="37" cy="38" rx="36.5" ry="37.5" fill="none"/>
    </g>
    <g id="Ellipse_49" data-name="Ellipse 49" transform="translate(765.665 1002.451) rotate(-22)" fill="#ffe6e6" stroke="#707070" stroke-width="1" opacity="0">
      <ellipse cx="52.395" cy="31.133" rx="52.395" ry="31.133" stroke="none"/>
      <ellipse cx="52.395" cy="31.133" rx="51.895" ry="30.633" fill="none"/>
    </g>
    <g id="Ellipse_50" data-name="Ellipse 50" transform="translate(763.545 1023.976) rotate(-45)" fill="#ffe6e6" stroke="#707070" stroke-width="1" opacity="0">
      <ellipse cx="11.895" cy="7.133" rx="11.895" ry="7.133" stroke="none"/>
      <ellipse cx="11.895" cy="7.133" rx="11.395" ry="6.633" fill="none"/>
    </g>
    <g id="Ellipse_51" data-name="Ellipse 51" transform="translate(765.665 1033.976) rotate(-45)" fill="#ffe6e6" stroke="#707070" stroke-width="1" opacity="0">
      <ellipse cx="11.895" cy="7.133" rx="11.895" ry="7.133" stroke="none"/>
      <ellipse cx="11.895" cy="7.133" rx="11.395" ry="6.633" fill="none"/>
    </g>
    <g id="Ellipse_52" data-name="Ellipse 52" transform="translate(772.086 1040.431) rotate(-45)" fill="#ffe6e6" stroke="#707070" stroke-width="1" opacity="0">
      <ellipse cx="11.895" cy="7.133" rx="11.895" ry="7.133" stroke="none"/>
      <ellipse cx="11.895" cy="7.133" rx="11.395" ry="6.633" fill="none"/>
    </g>
    <g id="Ellipse_53" data-name="Ellipse 53" transform="translate(785.12 1044.431) rotate(-45)" fill="#ffe6e6" stroke="#707070" stroke-width="1" opacity="0">
      <ellipse cx="11.895" cy="7.133" rx="11.895" ry="7.133" stroke="none"/>
      <ellipse cx="11.895" cy="7.133" rx="11.395" ry="6.633" fill="none"/>
    </g>
    <g id="Ellipse_54" data-name="Ellipse 54" transform="translate(798.997 1047.431) rotate(-45)" fill="#ffe6e6" stroke="#707070" stroke-width="1" opacity="0">
      <ellipse cx="11.895" cy="7.133" rx="11.895" ry="7.133" stroke="none"/>
      <ellipse cx="11.895" cy="7.133" rx="11.395" ry="6.633" fill="none"/>
    </g>
    <g id="Ellipse_55" data-name="Ellipse 55" transform="translate(1112.328 1069.103) rotate(-158)" fill="#ffe6e6" stroke="#707070" stroke-width="1" opacity="0">
      <ellipse cx="52.395" cy="31.133" rx="52.395" ry="31.133" stroke="none"/>
      <ellipse cx="52.395" cy="31.133" rx="51.895" ry="30.633" fill="none"/>
    </g>
    <g id="Ellipse_56" data-name="Ellipse 56" transform="translate(1127.685 1042.983) rotate(-135)" fill="#ffe6e6" stroke="#707070" stroke-width="1" opacity="0">
      <ellipse cx="11.895" cy="7.133" rx="11.895" ry="7.133" stroke="none"/>
      <ellipse cx="11.895" cy="7.133" rx="11.395" ry="6.633" fill="none"/>
    </g>
    <g id="Ellipse_57" data-name="Ellipse 57" transform="translate(1125.565 1052.983) rotate(-135)" fill="#ffe6e6" stroke="#707070" stroke-width="1" opacity="0">
      <ellipse cx="11.895" cy="7.133" rx="11.895" ry="7.133" stroke="none"/>
      <ellipse cx="11.895" cy="7.133" rx="11.395" ry="6.633" fill="none"/>
    </g>
    <g id="Ellipse_58" data-name="Ellipse 58" transform="translate(1119.144 1059.439) rotate(-135)" fill="#ffe6e6" stroke="#707070" stroke-width="1" opacity="0">
      <ellipse cx="11.895" cy="7.133" rx="11.895" ry="7.133" stroke="none"/>
      <ellipse cx="11.895" cy="7.133" rx="11.395" ry="6.633" fill="none"/>
    </g>
    <g id="Ellipse_59" data-name="Ellipse 59" transform="translate(1106.11 1063.439) rotate(-135)" fill="#ffe6e6" stroke="#707070" stroke-width="1" opacity="0">
      <ellipse cx="11.895" cy="7.133" rx="11.895" ry="7.133" stroke="none"/>
      <ellipse cx="11.895" cy="7.133" rx="11.395" ry="6.633" fill="none"/>
    </g>
    <g id="Ellipse_60" data-name="Ellipse 60" transform="translate(1092.233 1066.439) rotate(-135)" fill="#ffe6e6" stroke="#707070" stroke-width="1" opacity="0">
      <ellipse cx="11.895" cy="7.133" rx="11.895" ry="7.133" stroke="none"/>
      <ellipse cx="11.895" cy="7.133" rx="11.395" ry="6.633" fill="none"/>
    </g>
    <path id="Path_15" data-name="Path 15" d="M-3817.967,1826.094s111.674-43.85,275.327,0" transform="translate(4637 -1074)" fill="none" stroke="#707070" stroke-width="1" stroke-dasharray="3" opacity="0"/>
    <path id="Path_16" data-name="Path 16" d="M-3844.714,1545.591s15.384,19.179,33.459,1.1" transform="translate(-2954.484 1834.201) rotate(180)" fill="none" stroke="#fca854" stroke-width="4" opacity="0"/>
    <path id="Path_17" data-name="Path 17" d="M-3844.714,1545.591s15.384,19.179,33.459,1.1" transform="translate(-2765.588 1834.201) rotate(180)" fill="none" stroke="#fca854" stroke-width="4" opacity="0"/>
  </g>
</svg>
