<svg xmlns="http://www.w3.org/2000/svg" width="544.85" height="1013.57" viewBox="0 0 544.85 1013.57">
  <g id="Group_61" data-name="Group 61" transform="translate(111.85 -2429.43)">
    <rect id="Rectangle_5" data-name="Rectangle 5" width="544.85" height="1013.57" transform="translate(-111.85 2429.43)" fill="none"/>
    <g id="Group_60" data-name="Group 60" transform="translate(-1497.925 2363)">
      <g id="Group_49" data-name="Group 49">
        <g id="Group_46" data-name="Group 46" transform="translate(962.722 43.683)">
          <g id="Path_301" data-name="Path 301">
            <path id="Path_301-2" data-name="Path 301" d="M502.351,752.714a33.912,33.912,0,0,1-14.194-3.1,36.37,36.37,0,0,1-11.6-8.457,39.7,39.7,0,0,1-7.831-12.558,42.04,42.04,0,0,1-2.873-15.387,93.764,93.764,0,0,1,.693-13.591c.556-3.709,1.5-6.346,2.974-8.3a11.875,11.875,0,0,1,6.638-4.2,45.16,45.16,0,0,1,12.056-1.22c1.45,0,5.175,1.774,8.168,3.2a42.3,42.3,0,0,0,5.771,2.472c4.6,2.947,10.563,4.185,16.329,5.384,5.362,1.114,10.426,2.166,14.215,4.477a12.282,12.282,0,0,1,4.471,4.474,14.537,14.537,0,0,1,1.685,7.3,42.042,42.042,0,0,1-2.874,15.387,39.692,39.692,0,0,1-7.83,12.558,36.38,36.38,0,0,1-11.6,8.457A33.919,33.919,0,0,1,502.351,752.714Z" fill="#ffe6e6"/>
            <path id="Path_302" data-name="Path 302" d="M488.212,686.4a44.714,44.714,0,0,0-11.92,1.2,11.4,11.4,0,0,0-6.375,4.022c-1.42,1.883-2.335,4.448-2.879,8.071a93.367,93.367,0,0,0-.687,13.517,41.546,41.546,0,0,0,2.839,15.205,39.166,39.166,0,0,0,7.732,12.4,35.86,35.86,0,0,0,11.442,8.342,33.564,33.564,0,0,0,27.973,0,35.864,35.864,0,0,0,11.443-8.342,39.2,39.2,0,0,0,7.732-12.4,41.547,41.547,0,0,0,2.839-15.205c0-5.282-1.88-8.889-5.917-11.351-3.714-2.266-8.738-3.31-14.056-4.415-5.783-1.2-11.76-2.443-16.43-5.409a43.7,43.7,0,0,1-5.783-2.484c-2.792-1.33-6.616-3.152-7.953-3.152m0-1c2.7,0,11.341,5.051,14.139,5.706,12.885,8.327,37,2.929,37,22.1,0,22.091-16.566,40-37,40s-37-17.909-37-40S467.777,685.4,488.212,685.4Z"/>
          </g>
          <g id="Path_307" data-name="Path 307">
            <path id="Path_303" data-name="Path 303" d="M863.124,752.714a33.912,33.912,0,0,1-14.194-3.1,36.37,36.37,0,0,1-11.6-8.457A39.7,39.7,0,0,1,829.5,728.6a42.041,42.041,0,0,1-2.873-15.387,14.547,14.547,0,0,1,1.684-7.3,12.289,12.289,0,0,1,4.471-4.474c3.789-2.311,8.854-3.363,14.216-4.477,5.766-1.2,11.727-2.437,16.329-5.384a42.351,42.351,0,0,0,5.77-2.472c2.994-1.426,6.719-3.2,8.168-3.2a45.168,45.168,0,0,1,12.057,1.22,11.879,11.879,0,0,1,6.638,4.2c1.472,1.952,2.417,4.589,2.974,8.3a93.911,93.911,0,0,1,.693,13.591A42.042,42.042,0,0,1,896.75,728.6a39.693,39.693,0,0,1-7.83,12.558,36.38,36.38,0,0,1-11.6,8.457A33.919,33.919,0,0,1,863.124,752.714Z" fill="#ffe6e6"/>
            <path id="Path_304" data-name="Path 304" d="M877.262,686.4c-1.336,0-5.16,1.822-7.953,3.152a43.587,43.587,0,0,1-5.783,2.484c-4.67,2.966-10.647,4.208-16.43,5.409-5.318,1.1-10.341,2.149-14.056,4.415-4.036,2.462-5.916,6.069-5.916,11.351a41.546,41.546,0,0,0,2.839,15.205,39.166,39.166,0,0,0,7.732,12.4,35.859,35.859,0,0,0,11.442,8.342,33.564,33.564,0,0,0,27.973,0,35.863,35.863,0,0,0,11.443-8.342,39.2,39.2,0,0,0,7.732-12.4,41.546,41.546,0,0,0,2.839-15.205,93.324,93.324,0,0,0-.688-13.517c-.544-3.623-1.458-6.188-2.878-8.071a11.406,11.406,0,0,0-6.376-4.022,44.709,44.709,0,0,0-11.92-1.2m0-1c20.435,0,22.862,5.719,22.862,27.811s-16.566,40-37,40-37-17.909-37-40c0-19.176,24.114-13.778,37-22.1C865.921,690.454,874.565,685.4,877.262,685.4Z"/>
          </g>
          <path id="Union_5" data-name="Union 5" d="M555.65,960.988V904.041c0-4.613,18.659-4.069,25.059-4.209,12.724-.283,18.958,4.209,18.958,4.209v56.693h0v.255c0,4.074-18.659,3.594-25.059,3.718-.388.008-.772.011-1.147.011C561.507,964.718,555.65,960.988,555.65,960.988Z" fill="#ffe6e6" stroke="#000" stroke-width="1"/>
          <path id="Union_6" data-name="Union 6" d="M753.65,967.218V913.78c0-4.329,18.659-3.819,25.059-3.95,12.724-.266,18.958,3.95,18.958,3.95v53.2h0v.239c0,3.823-18.659,3.372-25.059,3.489-.388.007-.772.011-1.147.011C759.507,970.718,753.65,967.218,753.65,967.218Z" fill="#ffe6e6" stroke="#000" stroke-width="1"/>
          <g id="Group_46-2" data-name="Group 46">
            <g id="Ellipse_1" data-name="Ellipse 1">
              <ellipse id="Ellipse_120" data-name="Ellipse 120" cx="220" cy="211.5" rx="220" ry="211.5" transform="translate(465.351 84.771)" fill="#ffe6e6"/>
              <ellipse id="Ellipse_121" data-name="Ellipse 121" cx="216.5" cy="208" rx="216.5" ry="208" transform="translate(468.851 88.271)" fill="none" stroke="#000" stroke-width="7"/>
            </g>
            <path id="Path_1" data-name="Path 1" d="M821.118,708.455l67.993-25.9s31.568,3.505-88.4-206" fill="none" stroke="#010101" stroke-width="5"/>
            <path id="Path_2" data-name="Path 2" d="M545.458,708.455l-67.993-25.9s-31.568,3.505,88.4-206" fill="none" stroke="#010101" stroke-width="5"/>
            <path id="Path_3" data-name="Path 3" d="M586.251,592.5S490.9,816.525,519.576,914.885" fill="none" stroke="#010101" stroke-width="5"/>
            <path id="Path_4" data-name="Path 4" d="M793.713,607.5S862.67,831.3,834,929.657" fill="none" stroke="#010101" stroke-width="5"/>
            <path id="Path_5" data-name="Path 5" d="M517.788,915.521c70.815-38.094,121.433,4.363,121.433,4.363s4.718-146.29,40.211-149.268,34.715,153.793,34.715,153.793" fill="none" stroke="#000" stroke-width="5"/>
            <path id="Path_6" data-name="Path 6" d="M835.221,929.656S784.6,887.2,713.788,925.293" fill="none" stroke="#000" stroke-width="5"/>
          </g>
          <circle id="Ellipse_132" data-name="Ellipse 132" cx="15.5" cy="15.5" r="15.5" transform="translate(583.351 258.748)"/>
          <circle id="Ellipse_133" data-name="Ellipse 133" cx="15.5" cy="15.5" r="15.5" transform="translate(772.247 258.748)"/>
          <path id="Path_308" data-name="Path 308" d="M598.851,390.8s79.726,99.389,173.4,5.719" fill="none" stroke="#000" stroke-width="4"/>
          <g id="Ellipse_120-2" data-name="Ellipse 120">
            <ellipse id="Ellipse_122" data-name="Ellipse 122" cx="52.395" cy="31.133" rx="52.395" ry="31.133" transform="translate(491.016 969.664) rotate(-22)" fill="#ffe6e6"/>
            <ellipse id="Ellipse_123" data-name="Ellipse 123" cx="51.895" cy="30.633" rx="51.895" ry="30.633" transform="translate(491.667 969.94) rotate(-22)" fill="none" stroke="#707070" stroke-width="1"/>
          </g>
          <g id="Ellipse_121-2" data-name="Ellipse 121">
            <ellipse id="Ellipse_124" data-name="Ellipse 124" cx="11.895" cy="7.133" rx="11.895" ry="7.133" transform="translate(488.896 991.19) rotate(-45)" fill="#ffe6e6"/>
            <ellipse id="Ellipse_125" data-name="Ellipse 125" cx="11.395" cy="6.633" rx="11.395" ry="6.633" transform="translate(489.603 991.19) rotate(-45)" fill="none" stroke="#707070" stroke-width="1"/>
          </g>
          <g id="Ellipse_122-2" data-name="Ellipse 122">
            <ellipse id="Ellipse_126" data-name="Ellipse 126" cx="11.895" cy="7.133" rx="11.895" ry="7.133" transform="translate(491.016 1001.19) rotate(-45)" fill="#ffe6e6"/>
            <ellipse id="Ellipse_127" data-name="Ellipse 127" cx="11.395" cy="6.633" rx="11.395" ry="6.633" transform="translate(491.723 1001.19) rotate(-45)" fill="none" stroke="#707070" stroke-width="1"/>
          </g>
          <g id="Ellipse_123-2" data-name="Ellipse 123">
            <ellipse id="Ellipse_128" data-name="Ellipse 128" cx="11.895" cy="7.133" rx="11.895" ry="7.133" transform="translate(497.437 1007.645) rotate(-45)" fill="#ffe6e6"/>
            <ellipse id="Ellipse_129" data-name="Ellipse 129" cx="11.395" cy="6.633" rx="11.395" ry="6.633" transform="translate(498.144 1007.645) rotate(-45)" fill="none" stroke="#707070" stroke-width="1"/>
          </g>
          <g id="Ellipse_124-2" data-name="Ellipse 124">
            <ellipse id="Ellipse_130" data-name="Ellipse 130" cx="11.895" cy="7.133" rx="11.895" ry="7.133" transform="translate(510.471 1011.645) rotate(-45)" fill="#ffe6e6"/>
            <ellipse id="Ellipse_131" data-name="Ellipse 131" cx="11.395" cy="6.633" rx="11.395" ry="6.633" transform="translate(511.178 1011.645) rotate(-45)" fill="none" stroke="#707070" stroke-width="1"/>
          </g>
          <g id="Ellipse_125-2" data-name="Ellipse 125">
            <ellipse id="Ellipse_132-2" data-name="Ellipse 132" cx="11.895" cy="7.133" rx="11.895" ry="7.133" transform="translate(524.348 1014.645) rotate(-45)" fill="#ffe6e6"/>
            <ellipse id="Ellipse_133-2" data-name="Ellipse 133" cx="11.395" cy="6.633" rx="11.395" ry="6.633" transform="translate(525.055 1014.645) rotate(-45)" fill="none" stroke="#707070" stroke-width="1"/>
          </g>
          <g id="Ellipse_126-2" data-name="Ellipse 126">
            <ellipse id="Ellipse_134" data-name="Ellipse 134" cx="31.133" cy="52.395" rx="31.133" ry="52.395" transform="translate(740.519 997.062) rotate(-68)" fill="#ffe6e6"/>
            <ellipse id="Ellipse_135" data-name="Ellipse 135" cx="30.633" cy="51.895" rx="30.633" ry="51.895" transform="translate(741.17 996.786) rotate(-68)" fill="none" stroke="#707070" stroke-width="1"/>
          </g>
          <g id="Ellipse_130-2" data-name="Ellipse 130">
            <ellipse id="Ellipse_136" data-name="Ellipse 136" cx="7.133" cy="11.895" rx="7.133" ry="11.895" transform="translate(836.214 993.375) rotate(-45)" fill="#ffe6e6"/>
            <ellipse id="Ellipse_137" data-name="Ellipse 137" cx="6.633" cy="11.395" rx="6.633" ry="11.395" transform="translate(836.921 993.375) rotate(-45)" fill="none" stroke="#707070" stroke-width="1"/>
          </g>
          <g id="Ellipse_131-2" data-name="Ellipse 131">
            <ellipse id="Ellipse_138" data-name="Ellipse 138" cx="7.133" cy="11.895" rx="7.133" ry="11.895" transform="translate(834.094 1003.375) rotate(-45)" fill="#ffe6e6"/>
            <ellipse id="Ellipse_139" data-name="Ellipse 139" cx="6.633" cy="11.395" rx="6.633" ry="11.395" transform="translate(834.801 1003.375) rotate(-45)" fill="none" stroke="#707070" stroke-width="1"/>
          </g>
          <g id="Ellipse_127-2" data-name="Ellipse 127">
            <ellipse id="Ellipse_140" data-name="Ellipse 140" cx="7.133" cy="11.895" rx="7.133" ry="11.895" transform="translate(827.673 1009.83) rotate(-45)" fill="#ffe6e6"/>
            <ellipse id="Ellipse_141" data-name="Ellipse 141" cx="6.633" cy="11.395" rx="6.633" ry="11.395" transform="translate(828.38 1009.83) rotate(-45)" fill="none" stroke="#707070" stroke-width="1"/>
          </g>
          <g id="Ellipse_128-2" data-name="Ellipse 128">
            <ellipse id="Ellipse_142" data-name="Ellipse 142" cx="7.133" cy="11.895" rx="7.133" ry="11.895" transform="translate(814.639 1013.83) rotate(-45)" fill="#ffe6e6"/>
            <ellipse id="Ellipse_143" data-name="Ellipse 143" cx="6.633" cy="11.395" rx="6.633" ry="11.395" transform="translate(815.346 1013.83) rotate(-45)" fill="none" stroke="#707070" stroke-width="1"/>
          </g>
          <g id="Ellipse_129-2" data-name="Ellipse 129">
            <ellipse id="Ellipse_144" data-name="Ellipse 144" cx="7.133" cy="11.895" rx="7.133" ry="11.895" transform="translate(800.762 1016.83) rotate(-45)" fill="#ffe6e6"/>
            <ellipse id="Ellipse_145" data-name="Ellipse 145" cx="6.633" cy="11.395" rx="6.633" ry="11.395" transform="translate(801.469 1016.83) rotate(-45)" fill="none" stroke="#707070" stroke-width="1"/>
          </g>
          <path id="Path_306" data-name="Path 306" d="M544.384,719.308s111.674-43.85,275.327,0" fill="none" stroke="#707070" stroke-width="1" stroke-dasharray="3"/>
          <path id="Path_309" data-name="Path 309" d="M615.581,255.824s-15.384-19.179-33.459-1.1" fill="none" stroke="#754c24" stroke-miterlimit="10" stroke-width="6"/>
          <path id="Path_310" data-name="Path 310" d="M804.477,255.824s-15.384-19.179-33.459-1.1" fill="none" stroke="#754c24" stroke-miterlimit="10" stroke-width="6"/>
          <path id="Path_305" data-name="Path 305" d="M687.5,88.5s42.628,124-202,128C485.5,216.5,529.5,97.5,687.5,88.5Z" fill="#a67c52" stroke="#000" stroke-miterlimit="10" stroke-width="1"/>
          <path id="Path_306-2" data-name="Path 306" d="M686.028,88.694C706.556,160.889,485.5,216.5,485.5,216.5S570.2,105.621,685.351,91.06" fill="#a67c52" stroke="#000" stroke-miterlimit="10" stroke-width="1"/>
          <path id="Path_307-2" data-name="Path 307" d="M686.028,88.694s-42.628,124,202,128C888.028,216.694,844.028,97.694,686.028,88.694Z" fill="#a67c52" stroke="#000" stroke-miterlimit="10" stroke-width="1"/>
          <path id="Path_308-2" data-name="Path 308" d="M494.282,216.3S693.2,116.621,685.351,91.06" fill="#a67c52" stroke="#000" stroke-miterlimit="10" stroke-width="1"/>
          <path id="Path_309-2" data-name="Path 309" d="M683.762,90.708S477.649,190.94,485.5,216.5" fill="none" stroke="#000" stroke-miterlimit="10" stroke-width="1"/>
          <path id="Path_310-2" data-name="Path 310" d="M888.028,216.694c-190.472-20.8-202-128-202-128S828.362,130.606,886.5,216.5" fill="none" stroke="#000" stroke-miterlimit="10" stroke-width="1"/>
          <path id="Path_311" data-name="Path 311" d="M883.5,211.5c-96.206,4-196.153-120.53-196.153-120.53S859.5,175.859,883.5,216.179" fill="none" stroke="#000" stroke-miterlimit="10" stroke-width="1"/>
        </g>
      </g>
    </g>
  </g>
</svg>
