<svg xmlns="http://www.w3.org/2000/svg" width="544.846" height="1015" viewBox="0 0 544.846 1015">
  <g id="Group_60" data-name="Group 60" transform="translate(-698 -55.537)">
    <g id="Group_55" data-name="Group 55" transform="translate(419 860.643)">
      <g id="Group_29" data-name="Group 29" transform="translate(275.996 -532.645)">
        <g id="Group_26" data-name="Group 26">
          <path id="Path_227" data-name="Path 227" d="M45.56,689.33l-.26,1.88A6.056,6.056,0,0,1,45.56,689.33Z" fill="#b3b3b3" stroke="#000" stroke-miterlimit="10" stroke-width="3"/>
          <path id="Path_228" data-name="Path 228" d="M107.22,728.15a22.335,22.335,0,0,1-4.57.93c-9.5.96-43.54,2.75-55.24-18.43a24.657,24.657,0,0,1-2.68-15.25l.57-4.19c.12,8.33,16.2,18.25,34.46,23.03,21.99,5.76,31.86-1.35,31.86-1.35l-6.47-25.73s-.62-1.4-1.83-3.55l16.17-1.6.46-.04,62.34-6.17.06-.01C186,701.99,119.95,724.11,107.22,728.15Z" fill="#b3b3b3" stroke="#000" stroke-miterlimit="10" stroke-width="3"/>
          <g id="Group_25" data-name="Group 25">
            <path id="Path_229" data-name="Path 229" d="M105.15,687.16c.09-.03.97-.27,8.03-1.89.19-.04.37-.09.55-.14s.35-.08.52-.13.36-.1.53-.15c2.9-.86,4.4-1.93,5.17-2.88a2.783,2.783,0,0,0,.74-2.39,16.191,16.191,0,0,0,2.35.87,10.058,10.058,0,0,0,4.45.41h.01c1.7-.33,3.11-1.48,3.3-4.26,0,0,.21.22,2.25.24.55,0,1.23-.01,2.07-.04.93-.03,2.07-.1,3.45-.2.15-.01.29-.03.43-.04h.01a7.314,7.314,0,0,0,1.83-.45,4.462,4.462,0,0,0,2.84-3.27,8,8,0,0,0,.15-2.2,8.851,8.851,0,0,0-.34-1.89l-8.81-14.08-7.25-2.71s.2-6.49,4.87-7.03a49.962,49.962,0,0,1,8.34-.28s18.49-.76,32.4,6.51c0,0,11.22,10.41,9.61,22.9a12.785,12.785,0,0,1-.36,1.74c-1.01,3.48-3.74,6.6-9.07,8.93-24.81,10.83-61.6,28.16-61.6,28.16" fill="#c1272d" stroke="#000" stroke-miterlimit="10" stroke-width="3"/>
          </g>
          <path id="Path_230" data-name="Path 230" d="M111.62,712.89s-9.87,7.11-31.86,1.35c-18.26-4.78-34.34-14.7-34.46-23.03l.26-1.88c7.99-17,16.09-24.76,23.65-27.08a6.487,6.487,0,0,1,1.06-.29c.35-.09.7-.16,1.05-.22,16.73-1.65,27.84,14.5,32,21.87,1.21,2.15,1.83,3.55,1.83,3.55Z" fill="#fff" stroke="#000" stroke-miterlimit="10" stroke-width="3"/>
          <path id="Path_231" data-name="Path 231" d="M119.49,682.01c-.65.96-2.01,2.01-4.71,2.84-.17.05-.35.1-.53.15s-.35.09-.52.13-.36.1-.55.14c-7.06,1.62-7.94,1.86-8.03,1.89,0,0-.62-1.4-1.83-3.55-4.16-7.37-15.27-23.52-32-21.87a17.031,17.031,0,0,1,4.71-.2c7.9-.12,19.27.71,19.27.71,21.25-.54,24.61,17.06,24.61,17.06A2.81,2.81,0,0,1,119.49,682.01Z" fill="#b3b3b3" stroke="#000" stroke-miterlimit="10" stroke-width="3"/>
          <path id="Path_232" data-name="Path 232" d="M118.1,674.166c-3.162-6.54-11.812-13.138-17.618-12.457-2.572.3,9.706-6.262,18.655,1.084,6.574,5.4,14.043,13.475,9.2,17.528C125.876,682.376,121.651,681.507,118.1,674.166Z" fill="#fff" stroke="#000" stroke-miterlimit="10" stroke-width="3"/>
          <path id="Path_233" data-name="Path 233" d="M126.392,669.833c-3.162-6.539-12.33-10.971-18.136-10.29-2.572.3,10.223-8.429,19.172-1.083,6.575,5.4,14.044,13.475,9.2,17.528C134.167,678.043,129.942,677.174,126.392,669.833Z" fill="#fff" stroke="#000" stroke-miterlimit="10" stroke-width="3"/>
          <path id="Path_234" data-name="Path 234" d="M137.792,670.916c-.887-7.416-13.213-15.972-21.763-16.247-2.481-.08,13.191-7.719,21.245,4.874,4.645,7.264,9.417,11.535,4.663,15.706C137.95,678.748,138.31,675.249,137.792,670.916Z" fill="#fff" stroke="#000" stroke-miterlimit="10" stroke-width="3"/>
        </g>
        <g id="Group_28" data-name="Group 28">
          <path id="Path_235" data-name="Path 235" d="M462.93,700.74a6.369,6.369,0,0,1,.26,1.88Z" fill="#b3b3b3" stroke="#000" stroke-miterlimit="10" stroke-width="3"/>
          <path id="Path_236" data-name="Path 236" d="M461.07,722.07c-11.7,21.18-45.73,19.38-55.24,18.43a22.351,22.351,0,0,1-4.57-.94c-12.72-4.04-78.77-26.16-75.13-52.36l.07.01,62.33,6.17.46.04,16.18,1.6c-1.21,2.15-1.83,3.56-1.83,3.56l-6.48,25.72s9.87,7.11,31.87,1.36c18.25-4.78,34.34-14.7,34.46-23.04l.57,4.2A24.675,24.675,0,0,1,461.07,722.07Z" fill="#b3b3b3" stroke="#000" stroke-miterlimit="10" stroke-width="3"/>
          <g id="Group_27" data-name="Group 27">
            <path id="Path_237" data-name="Path 237" d="M403.34,698.58c-.09-.03-.98-.27-8.04-1.9-.18-.04-.36-.08-.54-.13s-.35-.09-.52-.14c-.32-.09-.61-.18-.9-.27a9.884,9.884,0,0,1-4.81-2.76,2.765,2.765,0,0,1-.74-2.38,16.506,16.506,0,0,1-2.37.87,9.649,9.649,0,0,1-4.45.39c-1.7-.33-3.09-1.48-3.28-4.24,0,0-.21.22-2.26.24-.53,0-1.2-.01-2.02-.04h-.01c-.94-.03-2.09-.1-3.49-.2-.15-.01-.3-.03-.44-.05h-.01a7.471,7.471,0,0,1-1.76-.41.01.01,0,0,1-.01-.01,4.462,4.462,0,0,1-2.91-3.38,7.768,7.768,0,0,1-.13-2.06,8.726,8.726,0,0,1,.34-1.95l8.81-14.08,7.26-2.71s-.21-6.49-4.87-7.03a50.077,50.077,0,0,0-8.35-.28s-18.49-.76-32.4,6.52c0,0-11.22,10.41-9.61,22.9a10.463,10.463,0,0,0,.37,1.73c1,3.47,3.73,6.6,9.06,8.93,24.81,10.83,61.6,28.16,61.6,28.16" fill="#c1272d" stroke="#000" stroke-miterlimit="10" stroke-width="3"/>
          </g>
          <path id="Path_238" data-name="Path 238" d="M463.19,702.62c-.12,8.34-16.21,18.26-34.46,23.04-22,5.75-31.87-1.36-31.87-1.36l6.48-25.72s.62-1.41,1.83-3.56c4.17-7.38,15.27-23.52,32-21.87.35.07.69.14,1.04.22a6.951,6.951,0,0,1,1.07.29c7.55,2.33,15.66,10.08,23.65,27.08Z" fill="#fff" stroke="#000" stroke-miterlimit="10" stroke-width="3"/>
          <path id="Path_239" data-name="Path 239" d="M437.17,673.15c-16.73-1.65-27.83,14.49-32,21.87-1.21,2.15-1.83,3.56-1.83,3.56-.09-.03-.98-.27-8.04-1.9-.18-.04-.36-.08-.54-.13s-.35-.09-.52-.14c-.32-.09-.61-.18-.9-.27-2.45-.81-3.72-1.8-4.35-2.72a2.81,2.81,0,0,1-.42-2.7s3.37-17.6,24.61-17.06c0,0,11.37-.83,19.27-.7A17.485,17.485,0,0,1,437.17,673.15Z" fill="#b3b3b3" stroke="#000" stroke-miterlimit="10" stroke-width="3"/>
          <path id="Path_240" data-name="Path 240" d="M390.382,685.58c3.163-6.54,11.812-13.138,17.618-12.457,2.572.3-9.7-6.262-18.654,1.083-6.575,5.4-14.044,13.476-9.2,17.528C382.607,693.79,386.832,692.921,390.382,685.58Z" fill="#fff" stroke="#000" stroke-miterlimit="10" stroke-width="3"/>
          <path id="Path_241" data-name="Path 241" d="M382.091,681.247c3.163-6.54,12.331-10.971,18.137-10.29,2.571.3-10.224-8.429-19.173-1.083-6.574,5.4-14.044,13.475-9.2,17.528C374.316,689.457,378.541,688.588,382.091,681.247Z" fill="#fff" stroke="#000" stroke-miterlimit="10" stroke-width="3"/>
          <path id="Path_242" data-name="Path 242" d="M370.692,682.33c.887-7.416,13.213-15.972,21.763-16.247,2.48-.08-13.192-7.719-21.245,4.874-4.646,7.264-9.418,11.535-4.664,15.706C370.534,690.162,370.173,686.663,370.692,682.33Z" fill="#fff" stroke="#000" stroke-miterlimit="10" stroke-width="3"/>
        </g>
      </g>
    </g>
    <g id="Ellipse_4" data-name="Ellipse 4" transform="translate(706 257)" fill="#fca854" stroke="#f79999" stroke-width="1" opacity="0">
      <circle cx="33" cy="33" r="33" stroke="none"/>
      <circle cx="33" cy="33" r="32.5" fill="none"/>
    </g>
    <g id="Ellipse_6" data-name="Ellipse 6" transform="translate(698 205)" fill="#fca854" stroke="#f79999" stroke-width="1" opacity="0">
      <ellipse cx="37" cy="38" rx="37" ry="38" stroke="none"/>
      <ellipse cx="37" cy="38" rx="36.5" ry="37.5" fill="none"/>
    </g>
    <g id="Path_8" data-name="Path 8" transform="translate(740 706)" fill="#ffe6e6" opacity="0">
      <path d="M 37 79.5 C 32.07728958129883 79.5 27.30168914794922 78.4576416015625 22.80586051940918 76.40188598632812 C 18.46036911010742 74.41487121582031 14.55698013305664 71.56948089599609 11.20409965515137 67.94475555419922 C 7.848659992218018 64.31724548339844 5.213990211486816 60.09242248535156 3.373280048370361 55.38763427734375 C 1.466709971427917 50.51452255249023 0.5 45.33737182617188 0.5 40.00000381469727 C 0.5 33.70934295654297 0.7072299718856812 29.64473342895508 1.19293999671936 26.40896415710449 C 1.749660015106201 22.70008277893066 2.694659948348999 20.06345367431641 4.166910171508789 18.11134338378906 C 5.683559894561768 16.10037422180176 7.792890071868896 14.76501369476318 10.80512046813965 13.90889358520508 C 13.73320960998535 13.07668304443359 17.56414985656738 12.68908309936523 22.86133003234863 12.68908309936523 C 24.31109046936035 12.68908309936523 28.03616905212402 14.46365356445312 31.02931976318359 15.88953304290771 C 33.35459136962891 16.99725532531738 35.5538215637207 18.04494094848633 36.79991912841797 18.36095809936523 C 41.40204238891602 21.30817413330078 47.36304473876953 22.54670715332031 53.12899017333984 23.74481391906738 C 58.49092864990234 24.85898399353027 63.55550003051758 25.91135406494141 67.34417724609375 28.22251319885254 C 69.34291839599609 29.44177436828613 70.80539703369141 30.90523338317871 71.81519317626953 32.69651412963867 C 72.94889831542969 34.70759201049805 73.5 37.09658432006836 73.5 40.00000381469727 C 73.5 45.33737182617188 72.53328704833984 50.51452255249023 70.62671661376953 55.38763427734375 C 68.7860107421875 60.09242248535156 66.15133666992188 64.31724548339844 62.7958984375 67.94475555419922 C 59.44301986694336 71.56948089599609 55.53963088989258 74.41487121582031 51.19414138793945 76.40188598632812 C 46.69831085205078 78.4576416015625 41.92271041870117 79.5 37 79.5 Z" stroke="none"/>
      <path d="M 22.861328125 13.1890869140625 C 17.61167907714844 13.1890869140625 13.82416915893555 13.57063293457031 10.94181060791016 14.38984680175781 C 8.039726257324219 15.21465301513672 6.013801574707031 16.49285125732422 4.566108703613281 18.41240692138672 C 3.145988464355469 20.29538726806641 2.23126220703125 22.85993194580078 1.687400817871094 26.48318481445312 C 1.205581665039062 29.69308471679688 1 33.73549270629883 1 40.00000381469727 C 1 45.27478408813477 1.955146789550781 50.39064407348633 3.838912963867188 55.20546340942383 C 5.656776428222656 59.85186386108398 8.258277893066406 64.02375793457031 11.57115173339844 67.60523223876953 C 14.87889099121094 71.18117523193359 18.7287483215332 73.98780059814453 23.01377868652344 75.94717407226562 C 27.44390106201172 77.97288513183594 32.14953994750977 79 37 79 C 41.85046005249023 79 46.55609893798828 77.97288513183594 50.98622131347656 75.94717407226562 C 55.27124786376953 73.98780059814453 59.12110900878906 71.18117523193359 62.42884826660156 67.60523223876953 C 65.74172210693359 64.02375793457031 68.34322357177734 59.85186386108398 70.16108703613281 55.20546340942383 C 72.04485321044922 50.39064407348633 73 45.27478408813477 73 40.00000381469727 C 73 34.71831512451172 71.12008666992188 31.11156463623047 67.08380126953125 28.64936447143555 C 63.3690185546875 26.38328552246094 58.34561920166016 25.33946228027344 53.02726745605469 24.23435974121094 C 47.24481582641602 23.03281402587891 41.26740264892578 21.79074859619141 36.59757995605469 18.82493591308594 C 35.29896926879883 18.47736358642578 33.2130126953125 17.483642578125 30.81430053710938 16.3409423828125 C 28.02210998535156 15.01079559326172 24.19807815551758 13.1890869140625 22.861328125 13.1890869140625 M 22.861328125 12.1890869140625 C 25.55868148803711 12.1890869140625 34.20246887207031 17.23973083496094 37 17.8951416015625 C 49.885498046875 26.221923828125 74 20.82467651367188 74 40.00000381469727 C 74 62.09139251708984 57.43453216552734 80 37 80 C 16.56547164916992 80 0 62.09139251708984 0 40.00000381469727 C 0 17.90859985351562 2.426788330078125 12.1890869140625 22.861328125 12.1890869140625 Z" stroke="none" fill="#000"/>
    </g>
    <g id="Path_9" data-name="Path 9" transform="translate(1100.773 706)" fill="#ffe6e6" opacity="0">
      <path d="M 37 79.5 C 32.07728958129883 79.5 27.30168914794922 78.4576416015625 22.80586051940918 76.40188598632812 C 18.46036911010742 74.41487121582031 14.55698013305664 71.56948089599609 11.20409965515137 67.94475555419922 C 7.848659992218018 64.31724548339844 5.213990211486816 60.09242248535156 3.373280048370361 55.38763427734375 C 1.466709971427917 50.51452255249023 0.5 45.33737182617188 0.5 40.00000381469727 C 0.5 37.09658432006836 1.051100015640259 34.70759201049805 2.184809923171997 32.69651412963867 C 3.194600105285645 30.90523338317871 4.657080173492432 29.44177436828613 6.655819892883301 28.22251319885254 C 10.44449996948242 25.91135406494141 15.50907039642334 24.85898399353027 20.87100982666016 23.74481391906738 C 26.63695526123047 22.54670715332031 32.59795761108398 21.30817413330078 37.20008087158203 18.36095809936523 C 38.4461784362793 18.04494094848633 40.64540863037109 16.99725532531738 42.9706916809082 15.88953304290771 C 45.96384048461914 14.46364307403564 49.68891906738281 12.68908309936523 51.138671875 12.68908309936523 C 56.43584823608398 12.68908309936523 60.26679992675781 13.07668304443359 63.19488143920898 13.90889358520508 C 66.20710754394531 14.76501369476318 68.31645202636719 16.10036277770996 69.83309173583984 18.11134338378906 C 71.30534362792969 20.06345367431641 72.25034332275391 22.70008277893066 72.80706024169922 26.40896415710449 C 73.29277038574219 29.64473342895508 73.5 33.70934295654297 73.5 40.00000381469727 C 73.5 45.33737182617188 72.53328704833984 50.51452255249023 70.62671661376953 55.38763427734375 C 68.7860107421875 60.09242248535156 66.15133666992188 64.31724548339844 62.7958984375 67.94475555419922 C 59.44301986694336 71.56948089599609 55.53963088989258 74.41487121582031 51.19414138793945 76.40188598632812 C 46.69831085205078 78.4576416015625 41.92271041870117 79.5 37 79.5 Z" stroke="none"/>
      <path d="M 51.138671875 13.1890869140625 C 49.80191802978516 13.1890869140625 45.97788238525391 15.01079559326172 43.18569183349609 16.3409423828125 C 40.7869873046875 17.483642578125 38.70103073120117 18.47736358642578 37.40242004394531 18.82493591308594 C 32.73259735107422 21.79074859619141 26.75518417358398 23.03281402587891 20.97272872924805 24.23435974121094 C 15.65438079833984 25.33946228027344 10.6309814453125 26.38328552246094 6.91619873046875 28.64936447143555 C 2.879913330078125 31.11156463623047 1 34.71831512451172 1 40.00000381469727 C 1 45.27478408813477 1.955146789550781 50.39064407348633 3.838912963867188 55.20546340942383 C 5.656776428222656 59.85186386108398 8.258277893066406 64.02375793457031 11.57115173339844 67.60523223876953 C 14.87889099121094 71.18117523193359 18.7287483215332 73.98780059814453 23.01377868652344 75.94717407226562 C 27.44390106201172 77.97288513183594 32.14953994750977 79 37 79 C 41.85046005249023 79 46.55609893798828 77.97288513183594 50.98622131347656 75.94717407226562 C 55.27124786376953 73.98780059814453 59.12110900878906 71.18117523193359 62.42884826660156 67.60523223876953 C 65.74172210693359 64.02375793457031 68.34322357177734 59.85186386108398 70.16108703613281 55.20546340942383 C 72.04485321044922 50.39064407348633 73 45.27478408813477 73 40.00000381469727 C 73 33.73549270629883 72.79441833496094 29.69308471679688 72.31259918212891 26.48318481445312 C 71.76873779296875 22.85993194580078 70.85400390625 20.29538726806641 69.43389129638672 18.41240692138672 C 67.98619842529297 16.49285125732422 65.96026611328125 15.21465301513672 63.05818176269531 14.38984680175781 C 60.17583084106445 13.57063293457031 56.38832092285156 13.1890869140625 51.138671875 13.1890869140625 M 51.138671875 12.1890869140625 C 71.57319641113281 12.1890869140625 74 17.90859985351562 74 40.00000381469727 C 74 62.09139251708984 57.43453216552734 80 37 80 C 16.56547164916992 80 0 62.09139251708984 0 40.00000381469727 C 0 20.82467651367188 24.11449813842773 26.221923828125 37 17.8951416015625 C 39.79753112792969 17.23973083496094 48.44131088256836 12.1890869140625 51.138671875 12.1890869140625 Z" stroke="none" fill="#000"/>
    </g>
    <path id="Union_1" data-name="Union 1" d="M4637-1012.83v-56.947c0-4.613,18.658-4.069,25.058-4.209,12.724-.283,18.958,4.209,18.958,4.209v56.693h0v.255c0,4.074-18.658,3.594-25.058,3.718-.388.008-.772.011-1.148.011C4642.857-1009.1,4637-1012.83,4637-1012.83Z" transform="translate(-3806.7 2006.605)" fill="#ffe6e6" stroke="#000" stroke-width="1" opacity="0"/>
    <path id="Union_2" data-name="Union 2" d="M4637-1016.6v-53.438c0-4.329,18.658-3.819,25.058-3.95,12.724-.266,18.958,3.95,18.958,3.95v53.2h0v.239c0,3.823-18.658,3.372-25.058,3.489-.388.007-.772.011-1.148.011C4642.857-1013.1,4637-1016.6,4637-1016.6Z" transform="translate(-3608.7 2016.605)" fill="#ffe6e6" stroke="#000" stroke-width="1" opacity="0"/>
    <g id="Group_1" data-name="Group 1" transform="translate(-241 33.557)" opacity="0">
      <g id="Ellipse_1" data-name="Ellipse 1" transform="translate(981 84)" fill="#ffe6e6" stroke="#000" stroke-width="7">
        <ellipse cx="220" cy="211.5" rx="220" ry="211.5" stroke="none"/>
        <ellipse cx="220" cy="211.5" rx="216.5" ry="208" fill="none"/>
      </g>
      <path id="Path_1" data-name="Path 1" d="M-3710.233,1827.684l67.993-25.9s31.568,3.505-88.4-206" transform="translate(5047 -1120)" fill="none" stroke="#010101" stroke-width="5"/>
      <path id="Path_2" data-name="Path 2" d="M-3658.893,1827.684l-67.993-25.9s-31.568,3.505,88.4-206" transform="translate(4720 -1120)" fill="none" stroke="#010101" stroke-width="5"/>
      <path id="Path_3" data-name="Path 3" d="M-3610.1,1711.733s-95.346,224.021-66.674,322.381" transform="translate(4712 -1120)" fill="none" stroke="#010101" stroke-width="5"/>
      <path id="Path_4" data-name="Path 4" d="M-3682.153,1711.733s68.957,223.793,40.285,322.153" transform="translate(4991.515 -1105)" fill="none" stroke="#010101" stroke-width="5"/>
      <path id="Path_5" data-name="Path 5" d="M-3684.913,2029.75c70.815-38.094,121.433,4.363,121.433,4.363s4.718-146.29,40.211-149.268,34.715,153.793,34.715,153.793" transform="translate(4718.35 -1115)" fill="none" stroke="#000" stroke-width="5"/>
      <path id="Path_6" data-name="Path 6" d="M-3563.48,2034.113s-50.618-42.458-121.433-4.363" transform="translate(4914.35 -1105.228)" fill="none" stroke="#000" stroke-width="5"/>
    </g>
    <circle id="Ellipse_2" data-name="Ellipse 2" cx="15.5" cy="15.5" r="15.5" transform="translate(858 291.534)" opacity="0"/>
    <circle id="Ellipse_3" data-name="Ellipse 3" cx="15.5" cy="15.5" r="15.5" transform="translate(1046.896 291.534)" opacity="0"/>
    <path id="Path_7" data-name="Path 7" d="M-3844.714,1545.591s79.726,99.389,173.4,5.719" transform="translate(4718.214 -1122)" fill="none" stroke="#000" stroke-width="4" opacity="0"/>
    <g id="Ellipse_5" data-name="Ellipse 5" transform="translate(718 196)" fill="#fca854" stroke="#f79999" stroke-width="1" opacity="0">
      <circle cx="38" cy="38" r="38" stroke="none"/>
      <circle cx="38" cy="38" r="37.5" fill="none"/>
    </g>
    <g id="Ellipse_7" data-name="Ellipse 7" transform="matrix(0.891, 0.454, -0.454, 0.891, 735.963, 176.597)" fill="#fca854" stroke="#f79999" stroke-width="1" opacity="0">
      <circle cx="33" cy="33" r="33" stroke="none"/>
      <circle cx="33" cy="33" r="32.5" fill="none"/>
    </g>
    <g id="Ellipse_10" data-name="Ellipse 10" transform="matrix(0.891, 0.454, -0.454, 0.891, 791.963, 132.212)" fill="#fca854" stroke="#f79999" stroke-width="1" opacity="0">
      <circle cx="33" cy="33" r="33" stroke="none"/>
      <circle cx="33" cy="33" r="32.5" fill="none"/>
    </g>
    <g id="Ellipse_13" data-name="Ellipse 13" transform="matrix(0.891, 0.454, -0.454, 0.891, 872.029, 124.212)" fill="#fca854" stroke="#f79999" stroke-width="1" opacity="0">
      <circle cx="33" cy="33" r="33" stroke="none"/>
      <circle cx="33" cy="33" r="32.5" fill="none"/>
    </g>
    <circle id="Ellipse_16" data-name="Ellipse 16" cx="33" cy="33" r="33" transform="matrix(0.891, 0.454, -0.454, 0.891, 921.931, 125.273)" fill="#fdb266" opacity="0"/>
    <g id="Ellipse_19" data-name="Ellipse 19" transform="matrix(0.891, 0.454, -0.454, 0.891, 969.226, 132.904)" fill="#fca854" stroke="#f79999" stroke-width="1" opacity="0">
      <circle cx="33" cy="33" r="33" stroke="none"/>
      <circle cx="33" cy="33" r="32.5" fill="none"/>
    </g>
    <g id="Ellipse_22" data-name="Ellipse 22" transform="matrix(0.891, 0.454, -0.454, 0.891, 989.963, 116.23)" fill="#fca854" stroke="#f79999" stroke-width="1" opacity="0">
      <circle cx="33" cy="33" r="33" stroke="none"/>
      <circle cx="33" cy="33" r="32.5" fill="none"/>
    </g>
    <circle id="Ellipse_25" data-name="Ellipse 25" cx="33" cy="33" r="33" transform="matrix(0.891, 0.454, -0.454, 0.891, 1044.963, 157.195)" fill="#fdb266" opacity="0"/>
    <circle id="Ellipse_28" data-name="Ellipse 28" cx="33" cy="33" r="33" transform="matrix(0.891, 0.454, -0.454, 0.891, 918.964, 112.81)" fill="#fdb266" opacity="0"/>
    <g id="Ellipse_31" data-name="Ellipse 31" transform="matrix(0.891, 0.454, -0.454, 0.891, 836.308, 151.316)" fill="#fca854" stroke="#f79999" stroke-width="1" opacity="0">
      <circle cx="33" cy="33" r="33" stroke="none"/>
      <circle cx="33" cy="33" r="32.5" fill="none"/>
    </g>
    <circle id="Ellipse_34" data-name="Ellipse 34" cx="33" cy="33" r="33" transform="matrix(0.891, 0.454, -0.454, 0.891, 775.308, 214.121)" fill="#fdb266" opacity="0"/>
    <circle id="Ellipse_37" data-name="Ellipse 37" cx="33" cy="33" r="33" transform="matrix(0.891, 0.454, -0.454, 0.891, 1092.359, 195.41)" fill="#fdb266" opacity="0"/>
    <circle id="Ellipse_40" data-name="Ellipse 40" cx="33" cy="33" r="33" transform="matrix(0.891, 0.454, -0.454, 0.891, 1126.029, 248.035)" fill="#fdb266" opacity="0"/>
    <g id="Ellipse_46" data-name="Ellipse 46" transform="matrix(0.891, 0.454, -0.454, 0.891, 853.898, 105.501)" fill="#fca854" stroke="#f79999" stroke-width="1" opacity="0">
      <circle cx="33" cy="33" r="33" stroke="none"/>
      <circle cx="33" cy="33" r="32.5" fill="none"/>
    </g>
    <g id="Ellipse_8" data-name="Ellipse 8" transform="matrix(0.891, 0.454, -0.454, 0.891, 774.349, 127.694)" fill="#fca854" stroke="#f79999" stroke-width="1" opacity="0">
      <circle cx="38" cy="38" r="38" stroke="none"/>
      <circle cx="38" cy="38" r="37.5" fill="none"/>
    </g>
    <g id="Ellipse_11" data-name="Ellipse 11" transform="matrix(0.891, 0.454, -0.454, 0.891, 830.349, 83.309)" fill="#fca854" stroke="#f79999" stroke-width="1" opacity="0">
      <circle cx="38" cy="38" r="38" stroke="none"/>
      <circle cx="38" cy="38" r="37.5" fill="none"/>
    </g>
    <g id="Ellipse_14" data-name="Ellipse 14" transform="matrix(0.891, 0.454, -0.454, 0.891, 910.414, 75.309)" fill="#fca854" stroke="#f79999" stroke-width="1" opacity="0">
      <circle cx="38" cy="38" r="38" stroke="none"/>
      <circle cx="38" cy="38" r="37.5" fill="none"/>
    </g>
    <g id="Ellipse_17" data-name="Ellipse 17" transform="matrix(0.891, 0.454, -0.454, 0.891, 960.316, 76.37)" fill="#fca854" stroke="#f79999" stroke-width="1" opacity="0">
      <circle cx="38" cy="38" r="38" stroke="none"/>
      <circle cx="38" cy="38" r="37.5" fill="none"/>
    </g>
    <g id="Ellipse_20" data-name="Ellipse 20" transform="matrix(0.891, 0.454, -0.454, 0.891, 1015.316, 101.352)" fill="#fca854" stroke="#f79999" stroke-width="1" opacity="0">
      <circle cx="38" cy="38" r="38" stroke="none"/>
      <circle cx="38" cy="38" r="37.5" fill="none"/>
    </g>
    <g id="Ellipse_23" data-name="Ellipse 23" transform="matrix(0.891, 0.454, -0.454, 0.891, 1028.349, 67.327)" fill="#fca854" stroke="#f79999" stroke-width="1" opacity="0">
      <circle cx="38" cy="38" r="38" stroke="none"/>
      <circle cx="38" cy="38" r="37.5" fill="none"/>
    </g>
    <g id="Ellipse_29" data-name="Ellipse 29" transform="matrix(0.891, 0.454, -0.454, 0.891, 957.349, 63.906)" fill="#fca854" stroke="#f79999" stroke-width="1" opacity="0">
      <circle cx="38" cy="38" r="38" stroke="none"/>
      <circle cx="38" cy="38" r="37.5" fill="none"/>
    </g>
    <g id="Ellipse_32" data-name="Ellipse 32" transform="matrix(0.891, 0.454, -0.454, 0.891, 874.694, 102.413)" fill="#fca854" stroke="#f79999" stroke-width="1" opacity="0">
      <circle cx="38" cy="38" r="38" stroke="none"/>
      <circle cx="38" cy="38" r="37.5" fill="none"/>
    </g>
    <g id="Ellipse_35" data-name="Ellipse 35" transform="matrix(0.891, 0.454, -0.454, 0.891, 813.694, 165.218)" fill="#fca854" stroke="#f79999" stroke-width="1" opacity="0">
      <circle cx="38" cy="38" r="38" stroke="none"/>
      <circle cx="38" cy="38" r="37.5" fill="none"/>
    </g>
    <g id="Ellipse_38" data-name="Ellipse 38" transform="matrix(0.891, 0.454, -0.454, 0.891, 1130.745, 146.507)" fill="#fca854" stroke="#f79999" stroke-width="1" opacity="0">
      <circle cx="38" cy="38" r="38" stroke="none"/>
      <circle cx="38" cy="38" r="37.5" fill="none"/>
    </g>
    <g id="Ellipse_41" data-name="Ellipse 41" transform="matrix(0.891, 0.454, -0.454, 0.891, 1164.414, 199.131)" fill="#fca854" stroke="#f79999" stroke-width="1" opacity="0">
      <circle cx="38" cy="38" r="38" stroke="none"/>
      <circle cx="38" cy="38" r="37.5" fill="none"/>
    </g>
    <circle id="Ellipse_44" data-name="Ellipse 44" cx="38" cy="38" r="38" transform="matrix(0.891, 0.454, -0.454, 0.891, 1175.13, 249.787)" fill="#fdb266" opacity="0"/>
    <circle id="Ellipse_47" data-name="Ellipse 47" cx="38" cy="38" r="38" transform="matrix(0.891, 0.454, -0.454, 0.891, 892.283, 56.598)" fill="#fdb266" opacity="0"/>
    <ellipse id="Ellipse_9" data-name="Ellipse 9" cx="37" cy="38" rx="37" ry="38" transform="matrix(0.891, 0.454, -0.454, 0.891, 752.443, 126.633)" fill="#fdb266" opacity="0"/>
    <g id="Ellipse_12" data-name="Ellipse 12" transform="matrix(0.891, 0.454, -0.454, 0.891, 808.443, 82.248)" fill="#fca854" stroke="#f79999" stroke-width="1" opacity="0">
      <ellipse cx="37" cy="38" rx="37" ry="38" stroke="none"/>
      <ellipse cx="37" cy="38" rx="36.5" ry="37.5" fill="none"/>
    </g>
    <g id="Ellipse_15" data-name="Ellipse 15" transform="matrix(0.891, 0.454, -0.454, 0.891, 888.508, 74.248)" fill="#fca854" stroke="#f79999" stroke-width="1" opacity="0">
      <ellipse cx="37" cy="38" rx="37" ry="38" stroke="none"/>
      <ellipse cx="37" cy="38" rx="36.5" ry="37.5" fill="none"/>
    </g>
    <g id="Ellipse_18" data-name="Ellipse 18" transform="matrix(0.891, 0.454, -0.454, 0.891, 938.41, 75.309)" fill="#fca854" stroke="#f79999" stroke-width="1" opacity="0">
      <ellipse cx="37" cy="38" rx="37" ry="38" stroke="none"/>
      <ellipse cx="37" cy="38" rx="36.5" ry="37.5" fill="none"/>
    </g>
    <ellipse id="Ellipse_21" data-name="Ellipse 21" cx="37" cy="38" rx="37" ry="38" transform="matrix(0.891, 0.454, -0.454, 0.891, 993.41, 100.291)" fill="#fdb266" opacity="0"/>
    <ellipse id="Ellipse_24" data-name="Ellipse 24" cx="37" cy="38" rx="37" ry="38" transform="matrix(0.891, 0.454, -0.454, 0.891, 1006.443, 66.266)" fill="#fdb266" opacity="0"/>
    <g id="Ellipse_27" data-name="Ellipse 27" transform="matrix(0.891, 0.454, -0.454, 0.891, 1061.443, 107.23)" fill="#fca854" stroke="#f79999" stroke-width="1" opacity="0">
      <ellipse cx="37" cy="38" rx="37" ry="38" stroke="none"/>
      <ellipse cx="37" cy="38" rx="36.5" ry="37.5" fill="none"/>
    </g>
    <g id="Ellipse_30" data-name="Ellipse 30" transform="matrix(0.891, 0.454, -0.454, 0.891, 935.443, 62.845)" fill="#fca854" stroke="#f79999" stroke-width="1" opacity="0">
      <ellipse cx="37" cy="38" rx="37" ry="38" stroke="none"/>
      <ellipse cx="37" cy="38" rx="36.5" ry="37.5" fill="none"/>
    </g>
    <ellipse id="Ellipse_33" data-name="Ellipse 33" cx="37" cy="38" rx="37" ry="38" transform="matrix(0.891, 0.454, -0.454, 0.891, 852.788, 101.352)" fill="#fdb266" opacity="0"/>
    <g id="Ellipse_36" data-name="Ellipse 36" transform="matrix(0.891, 0.454, -0.454, 0.891, 791.788, 164.157)" fill="#fca854" stroke="#f79999" stroke-width="1" opacity="0">
      <ellipse cx="37" cy="38" rx="37" ry="38" stroke="none"/>
      <ellipse cx="37" cy="38" rx="36.5" ry="37.5" fill="none"/>
    </g>
    <ellipse id="Ellipse_39" data-name="Ellipse 39" cx="37" cy="38" rx="37" ry="38" transform="matrix(0.891, 0.454, -0.454, 0.891, 1108.839, 145.446)" fill="#fdb266" opacity="0"/>
    <ellipse id="Ellipse_42" data-name="Ellipse 42" cx="37" cy="38" rx="37" ry="38" transform="matrix(0.891, 0.454, -0.454, 0.891, 1142.508, 198.071)" fill="#fdb266" opacity="0"/>
    <g id="Ellipse_45" data-name="Ellipse 45" transform="matrix(0.891, 0.454, -0.454, 0.891, 1153.224, 248.726)" fill="#fca854" stroke="#f79999" stroke-width="1" opacity="0">
      <ellipse cx="37" cy="38" rx="37" ry="38" stroke="none"/>
      <ellipse cx="37" cy="38" rx="36.5" ry="37.5" fill="none"/>
    </g>
    <g id="Ellipse_48" data-name="Ellipse 48" transform="matrix(0.891, 0.454, -0.454, 0.891, 870.377, 55.537)" fill="#fca854" stroke="#f79999" stroke-width="1" opacity="0">
      <ellipse cx="37" cy="38" rx="37" ry="38" stroke="none"/>
      <ellipse cx="37" cy="38" rx="36.5" ry="37.5" fill="none"/>
    </g>
    <g id="Ellipse_49" data-name="Ellipse 49" transform="translate(765.665 1002.451) rotate(-22)" fill="#ffe6e6" stroke="#707070" stroke-width="1" opacity="0">
      <ellipse cx="52.395" cy="31.133" rx="52.395" ry="31.133" stroke="none"/>
      <ellipse cx="52.395" cy="31.133" rx="51.895" ry="30.633" fill="none"/>
    </g>
    <g id="Ellipse_50" data-name="Ellipse 50" transform="translate(763.545 1023.976) rotate(-45)" fill="#ffe6e6" stroke="#707070" stroke-width="1" opacity="0">
      <ellipse cx="11.895" cy="7.133" rx="11.895" ry="7.133" stroke="none"/>
      <ellipse cx="11.895" cy="7.133" rx="11.395" ry="6.633" fill="none"/>
    </g>
    <g id="Ellipse_51" data-name="Ellipse 51" transform="translate(765.665 1033.976) rotate(-45)" fill="#ffe6e6" stroke="#707070" stroke-width="1" opacity="0">
      <ellipse cx="11.895" cy="7.133" rx="11.895" ry="7.133" stroke="none"/>
      <ellipse cx="11.895" cy="7.133" rx="11.395" ry="6.633" fill="none"/>
    </g>
    <g id="Ellipse_52" data-name="Ellipse 52" transform="translate(772.086 1040.431) rotate(-45)" fill="#ffe6e6" stroke="#707070" stroke-width="1" opacity="0">
      <ellipse cx="11.895" cy="7.133" rx="11.895" ry="7.133" stroke="none"/>
      <ellipse cx="11.895" cy="7.133" rx="11.395" ry="6.633" fill="none"/>
    </g>
    <g id="Ellipse_53" data-name="Ellipse 53" transform="translate(785.12 1044.431) rotate(-45)" fill="#ffe6e6" stroke="#707070" stroke-width="1" opacity="0">
      <ellipse cx="11.895" cy="7.133" rx="11.895" ry="7.133" stroke="none"/>
      <ellipse cx="11.895" cy="7.133" rx="11.395" ry="6.633" fill="none"/>
    </g>
    <g id="Ellipse_54" data-name="Ellipse 54" transform="translate(798.997 1047.431) rotate(-45)" fill="#ffe6e6" stroke="#707070" stroke-width="1" opacity="0">
      <ellipse cx="11.895" cy="7.133" rx="11.895" ry="7.133" stroke="none"/>
      <ellipse cx="11.895" cy="7.133" rx="11.395" ry="6.633" fill="none"/>
    </g>
    <g id="Ellipse_55" data-name="Ellipse 55" transform="translate(1112.328 1069.103) rotate(-158)" fill="#ffe6e6" stroke="#707070" stroke-width="1" opacity="0">
      <ellipse cx="52.395" cy="31.133" rx="52.395" ry="31.133" stroke="none"/>
      <ellipse cx="52.395" cy="31.133" rx="51.895" ry="30.633" fill="none"/>
    </g>
    <g id="Ellipse_56" data-name="Ellipse 56" transform="translate(1127.685 1042.983) rotate(-135)" fill="#ffe6e6" stroke="#707070" stroke-width="1" opacity="0">
      <ellipse cx="11.895" cy="7.133" rx="11.895" ry="7.133" stroke="none"/>
      <ellipse cx="11.895" cy="7.133" rx="11.395" ry="6.633" fill="none"/>
    </g>
    <g id="Ellipse_57" data-name="Ellipse 57" transform="translate(1125.565 1052.983) rotate(-135)" fill="#ffe6e6" stroke="#707070" stroke-width="1" opacity="0">
      <ellipse cx="11.895" cy="7.133" rx="11.895" ry="7.133" stroke="none"/>
      <ellipse cx="11.895" cy="7.133" rx="11.395" ry="6.633" fill="none"/>
    </g>
    <g id="Ellipse_58" data-name="Ellipse 58" transform="translate(1119.144 1059.439) rotate(-135)" fill="#ffe6e6" stroke="#707070" stroke-width="1" opacity="0">
      <ellipse cx="11.895" cy="7.133" rx="11.895" ry="7.133" stroke="none"/>
      <ellipse cx="11.895" cy="7.133" rx="11.395" ry="6.633" fill="none"/>
    </g>
    <g id="Ellipse_59" data-name="Ellipse 59" transform="translate(1106.11 1063.439) rotate(-135)" fill="#ffe6e6" stroke="#707070" stroke-width="1" opacity="0">
      <ellipse cx="11.895" cy="7.133" rx="11.895" ry="7.133" stroke="none"/>
      <ellipse cx="11.895" cy="7.133" rx="11.395" ry="6.633" fill="none"/>
    </g>
    <g id="Ellipse_60" data-name="Ellipse 60" transform="translate(1092.233 1066.439) rotate(-135)" fill="#ffe6e6" stroke="#707070" stroke-width="1" opacity="0">
      <ellipse cx="11.895" cy="7.133" rx="11.895" ry="7.133" stroke="none"/>
      <ellipse cx="11.895" cy="7.133" rx="11.395" ry="6.633" fill="none"/>
    </g>
    <path id="Path_15" data-name="Path 15" d="M-3817.967,1826.094s111.674-43.85,275.327,0" transform="translate(4637 -1074)" fill="none" stroke="#707070" stroke-width="1" stroke-dasharray="3" opacity="0"/>
    <path id="Path_16" data-name="Path 16" d="M-3844.714,1545.591s15.384,19.179,33.459,1.1" transform="translate(-2954.484 1834.201) rotate(180)" fill="none" stroke="#fca854" stroke-width="4" opacity="0"/>
    <path id="Path_17" data-name="Path 17" d="M-3844.714,1545.591s15.384,19.179,33.459,1.1" transform="translate(-2765.588 1834.201) rotate(180)" fill="none" stroke="#fca854" stroke-width="4" opacity="0"/>
  </g>
</svg>
