<svg xmlns="http://www.w3.org/2000/svg" width="419.518" height="96.414" viewBox="0 0 419.518 96.414">
  <g id="Group_60" data-name="Group 60" transform="translate(-278.482 -343.486)">
    <g id="Group_34" data-name="Group 34" transform="translate(-230.935 23.484)">
      <g id="Group_31" data-name="Group 31">
        <path id="Path_243" data-name="Path 243" d="M510.491,364.745l-.26,1.88A6.057,6.057,0,0,1,510.491,364.745Z" fill="none"/>
        <path id="Path_244" data-name="Path 244" d="M572.151,403.565a22.331,22.331,0,0,1-4.57.93c-9.5.96-43.54,2.75-55.24-18.43a24.657,24.657,0,0,1-2.68-15.25l.57-4.19c.12,8.33,16.2,18.25,34.46,23.03,21.99,5.76,31.86-1.35,31.86-1.35l-6.47-25.73s-.62-1.4-1.83-3.55l16.17-1.6.46-.04,62.34-6.17.06-.01C650.931,377.4,584.881,399.525,572.151,403.565Z" fill="none"/>
        <g id="Group_30" data-name="Group 30">
          <path id="Path_245" data-name="Path 245" d="M570.081,362.575c.09-.03.97-.27,8.03-1.89.19-.04.37-.09.55-.14s.35-.08.52-.13.36-.1.53-.15c2.9-.86,4.4-1.93,5.17-2.88a2.783,2.783,0,0,0,.74-2.39,16.189,16.189,0,0,0,2.35.87,10.059,10.059,0,0,0,4.45.41h.01c1.7-.33,3.11-1.48,3.3-4.26,0,0,.21.22,2.25.24.55,0,1.23-.01,2.07-.04.93-.03,2.07-.1,3.45-.2.15-.01.29-.03.43-.04h.01a7.315,7.315,0,0,0,1.83-.45,4.462,4.462,0,0,0,2.84-3.27,8,8,0,0,0,.15-2.2,8.849,8.849,0,0,0-.34-1.89l-8.81-14.08-7.25-2.71s.2-6.49,4.87-7.03a49.96,49.96,0,0,1,8.34-.28s18.49-.76,32.4,6.51c0,0,11.22,10.41,9.61,22.9a12.8,12.8,0,0,1-.36,1.74c-1.01,3.48-3.74,6.6-9.07,8.93-24.81,10.83-61.6,28.16-61.6,28.16" fill="none"/>
        </g>
        <path id="Path_246" data-name="Path 246" d="M576.551,388.3s-9.87,7.11-31.86,1.35c-18.26-4.78-34.34-14.7-34.46-23.03l.26-1.88c7.99-17,16.09-24.76,23.65-27.08a6.487,6.487,0,0,1,1.06-.29c.35-.09.7-.16,1.05-.22,16.73-1.65,27.84,14.5,32,21.87,1.21,2.15,1.83,3.55,1.83,3.55Z" fill="none"/>
        <path id="Path_247" data-name="Path 247" d="M584.421,357.425c-.65.96-2.01,2.01-4.71,2.84-.17.05-.35.1-.53.15s-.35.09-.52.13-.36.1-.55.14c-7.06,1.62-7.94,1.86-8.03,1.89,0,0-.62-1.4-1.83-3.55-4.16-7.37-15.27-23.52-32-21.87a17.029,17.029,0,0,1,4.71-.2c7.9-.12,19.27.71,19.27.71,21.25-.54,24.61,17.06,24.61,17.06A2.81,2.81,0,0,1,584.421,357.425Z" fill="none"/>
        <path id="Path_248" data-name="Path 248" d="M583.032,349.581c-3.162-6.54-11.812-13.138-17.618-12.457-2.571.3,9.706-6.262,18.655,1.084,6.574,5.4,14.044,13.475,9.2,17.528C590.807,357.791,586.583,356.922,583.032,349.581Z" fill="none"/>
        <path id="Path_249" data-name="Path 249" d="M591.323,345.248c-3.162-6.539-12.33-10.971-18.136-10.29-2.572.3,10.223-8.429,19.173-1.083,6.574,5.4,14.043,13.475,9.2,17.528C599.1,353.458,594.873,352.589,591.323,345.248Z" fill="none"/>
        <path id="Path_250" data-name="Path 250" d="M602.723,346.331c-.887-7.416-13.213-15.972-21.763-16.247-2.481-.08,13.191-7.719,21.245,4.874,4.645,7.264,9.417,11.535,4.663,15.706C602.881,354.163,603.241,350.664,602.723,346.331Z" fill="none"/>
      </g>
      <g id="Group_33" data-name="Group 33">
        <path id="Path_251" data-name="Path 251" d="M927.861,376.155a6.368,6.368,0,0,1,.26,1.88Z" fill="none"/>
        <path id="Path_252" data-name="Path 252" d="M926,397.485c-11.7,21.18-45.73,19.38-55.24,18.43a22.352,22.352,0,0,1-4.57-.94c-12.72-4.04-78.77-26.16-75.13-52.36l.07.01,62.33,6.17.46.04,16.18,1.6c-1.21,2.15-1.83,3.56-1.83,3.56l-6.48,25.72s9.87,7.11,31.87,1.36c18.25-4.78,34.34-14.7,34.46-23.04l.57,4.2A24.674,24.674,0,0,1,926,397.485Z" fill="none"/>
        <g id="Group_32" data-name="Group 32">
          <path id="Path_253" data-name="Path 253" d="M868.271,373.995c-.09-.03-.98-.27-8.04-1.9-.18-.04-.36-.08-.54-.13s-.35-.09-.52-.14c-.32-.09-.61-.18-.9-.27a9.884,9.884,0,0,1-4.81-2.76,2.765,2.765,0,0,1-.74-2.38,16.506,16.506,0,0,1-2.37.87,9.649,9.649,0,0,1-4.45.39c-1.7-.33-3.09-1.48-3.28-4.24,0,0-.21.22-2.26.24-.53,0-1.2-.01-2.02-.04h-.01c-.94-.03-2.09-.1-3.49-.2-.15-.01-.3-.03-.44-.05h-.01a7.474,7.474,0,0,1-1.76-.41.01.01,0,0,1-.01-.01,4.462,4.462,0,0,1-2.91-3.38,7.768,7.768,0,0,1-.13-2.06,8.724,8.724,0,0,1,.34-1.95l8.81-14.08,7.26-2.71s-.21-6.49-4.87-7.03a50.079,50.079,0,0,0-8.35-.28s-18.49-.76-32.4,6.52c0,0-11.22,10.41-9.61,22.9a10.466,10.466,0,0,0,.37,1.73c1,3.47,3.73,6.6,9.06,8.93,24.81,10.83,61.6,28.16,61.6,28.16" fill="none"/>
        </g>
        <path id="Path_254" data-name="Path 254" d="M928.121,378.035c-.12,8.34-16.21,18.26-34.46,23.04-22,5.75-31.87-1.36-31.87-1.36l6.48-25.72s.62-1.41,1.83-3.56c4.17-7.38,15.27-23.52,32-21.87.35.07.69.14,1.04.22a6.944,6.944,0,0,1,1.07.29c7.55,2.33,15.66,10.08,23.65,27.08Z" fill="none"/>
        <path id="Path_255" data-name="Path 255" d="M902.1,348.565c-16.73-1.65-27.83,14.49-32,21.87-1.21,2.15-1.83,3.56-1.83,3.56-.09-.03-.98-.27-8.04-1.9-.18-.04-.36-.08-.54-.13s-.35-.09-.52-.14c-.32-.09-.61-.18-.9-.27-2.45-.81-3.72-1.8-4.35-2.72a2.81,2.81,0,0,1-.42-2.7s3.37-17.6,24.61-17.06c0,0,11.37-.83,19.27-.7A17.488,17.488,0,0,1,902.1,348.565Z" fill="none"/>
        <path id="Path_256" data-name="Path 256" d="M855.313,360.995c3.163-6.54,11.812-13.138,17.618-12.457,2.572.3-9.705-6.262-18.654,1.083-6.575,5.4-14.044,13.476-9.2,17.529C847.538,369.2,851.763,368.336,855.313,360.995Z" fill="none"/>
        <path id="Path_257" data-name="Path 257" d="M847.023,356.662c3.162-6.54,12.33-10.971,18.136-10.29,2.572.3-10.224-8.429-19.173-1.083-6.574,5.4-14.044,13.475-9.2,17.528C839.248,364.872,843.472,364,847.023,356.662Z" fill="none"/>
        <path id="Path_258" data-name="Path 258" d="M835.623,357.745c.887-7.416,13.213-15.972,21.763-16.247,2.481-.08-13.191-7.719-21.245,4.874-4.646,7.264-9.418,11.535-4.664,15.706C835.465,365.577,835.1,362.078,835.623,357.745Z" fill="none"/>
      </g>
    </g>
  </g>
</svg>
