<svg xmlns="http://www.w3.org/2000/svg" width="438.376" height="249.063" viewBox="0 0 438.376 249.063">
  <g id="Group_60" data-name="Group 60" transform="translate(-1408.714 -532.942)">
    <g id="Group_14" data-name="Group 14" transform="translate(935.522 273.979)">
      <g id="Group_11" data-name="Group 11">
        <g id="Group_10" data-name="Group 10">
          <g id="Group_8" data-name="Group 8">
            <g id="Group_7" data-name="Group 7">
              <path id="Path_19" data-name="Path 19" d="M820.019,494.594l67.993-25.9s31.568,3.505-88.4-206" fill="none"/>
              <path id="Path_20" data-name="Path 20" d="M544.359,494.594l-67.993-25.9s-29.371-.225,90.6-209.731" fill="none"/>
              <path id="Path_21" data-name="Path 21" d="M585.152,378.643A1295.851,1295.851,0,0,0,540.081,506.28c-1.22,4.164.36-1.227,0,0h0c.947-2.121,2.427-5.038,2.427-5.038" fill="none"/>
              <path id="Path_22" data-name="Path 22" d="M792.614,393.643,820.767,504.5s-147.4-44.028-280.654,3.524" fill="none"/>
            </g>
            <path id="Path_23" data-name="Path 23" d="M802.085,264.061a149.173,149.173,0,0,1-50.026,23.059c-29.911,7.53-69.617,7.061-69.617,7.061s-62.688,1.237-118.021-34.265" fill="none"/>
          </g>
        </g>
        <path id="Path_24" data-name="Path 24" d="M546.619,487.119s114.809-41.126,268.295,0" fill="none"/>
        <path id="Path_25" data-name="Path 25" d="M476,453.432l70.495,29.847" fill="none"/>
        <path id="Path_26" data-name="Path 26" d="M889.495,453.92,817.41,484.234" fill="none"/>
        <path id="Path_27" data-name="Path 27" d="M562.151,270.765s126.4,70.782,243.2,3.342" fill="none"/>
      </g>
      <path id="Path_99" data-name="Path 99" d="M911.569,352.611" fill="none"/>
      <path id="Path_100" data-name="Path 100" d="M476.661,456.269l.118,9.834a14.293,14.293,0,0,1,2.611-7.866,30.764,30.764,0,0,1-.745,9.752,20.568,20.568,0,0,1,3.033-9.7c.521.185.712.812.8,1.357a16.711,16.711,0,0,1-1.683,10.485,18.2,18.2,0,0,1,1.06-8.27c.263-.7,1.109-1.491,1.593-.924a25.573,25.573,0,0,1-.3,7.138,23.324,23.324,0,0,1,3.586-9.627,4.675,4.675,0,0,1-2.39,2.477,1.042,1.042,0,0,1-.6.121.8.8,0,0,1-.531-.955,2.07,2.07,0,0,1,.663-1,1.955,1.955,0,0,1,1.383-.715,1.407,1.407,0,0,1,1.169,1.128,3.833,3.833,0,0,1-.1,1.723,37.684,37.684,0,0,1-1.724,5.643c-.316.8-.8,1.708-1.655,1.823a9.826,9.826,0,0,0,4.269-7.687c.148,2.941.281,5.987-.8,8.727a9.276,9.276,0,0,1,2.183-7.465,23.365,23.365,0,0,1-.64,8.018q1.006-3.994,2.277-7.915c.223-.69.846-1.544,1.469-1.172a60.216,60.216,0,0,0-2.346,10.52l4.2-9.422a16.3,16.3,0,0,1-.4,7.908l-.281-.84a4.517,4.517,0,0,0-1.613,2.133.654.654,0,0,0-.042.446.557.557,0,0,0,.29.277,1.337,1.337,0,0,0,1.393-2.272" fill="none"/>
      <path id="Path_101" data-name="Path 101" d="M496.316,467.863l34.911,13.753,11.1,4.374" fill="none"/>
      <path id="Path_102" data-name="Path 102" d="M547.544,498.663" fill="none"/>
      <path id="Path_103" data-name="Path 103" d="M550.389,491.834" fill="none"/>
      <path id="Path_104" data-name="Path 104" d="M552.381,495.818" fill="none"/>
      <path id="Path_105" data-name="Path 105" d="M546.451,500.7" fill="none"/>
      <path id="Path_106" data-name="Path 106" d="M554.377,496.191c.852-.368,1.515-1.071,2.33-1.514a9.578,9.578,0,0,1,4.05-.775,6.621,6.621,0,0,0,3.918-1.158" fill="none"/>
      <path id="Path_107" data-name="Path 107" d="M555.71,491.919c4.387.194,8.976.351,12.949-1.52a16.261,16.261,0,0,0-6.492-.154c4.774-.425,9.364-2.183,14.147-2.485a5.381,5.381,0,0,1-.5,2.557,1.629,1.629,0,0,1-1.016,1,3.018,3.018,0,0,1-1.339-.262c-.445-.118-1.044-.03-1.176.411" fill="none"/>
      <path id="Path_108" data-name="Path 108" d="M579.591,485.434c6.622.688,12.987-2.817,19.638-3.124,2.589-.12,5.311.226,7.671-.846" fill="none"/>
      <path id="Path_109" data-name="Path 109" d="M581.707,488.671a41.146,41.146,0,0,0,17.06-2.519c1.54-.528,3.063-1.113,4.633-1.547,3.434-.949,7.075-1.175,10.368-2.535" fill="none"/>
      <path id="Path_110" data-name="Path 110" d="M612.112,480.3a50.92,50.92,0,0,1,12.919.777l-6.245,1.67a31.055,31.055,0,0,1,6.182-6.841,3.291,3.291,0,0,1,1.27-.741,4.052,4.052,0,0,1,2.116.337c3.825,1.218,7.964.526,11.917-.176a14.939,14.939,0,0,1-10,6.858c5.181-1.528,10.365-3.057,15.611-4.347,1.32-.324,2.824-.6,3.95.157l-4.529,2.717a59.771,59.771,0,0,1,17.258-5.318c1.562-.231,3.447-.273,4.384,1a14.21,14.21,0,0,1-13.311,2.986,1.746,1.746,0,0,1-1.081-.676,1.6,1.6,0,0,1,.525-1.8,4.978,4.978,0,0,1,3.006-1.432l-1.157-.317c3.836,1.481,8.362.6,12.017,2.487a24.314,24.314,0,0,0,2.622,1.406c2.134.786,4.5.072,6.656-.642" fill="none"/>
      <path id="Path_111" data-name="Path 111" d="M674.77,475.644a18.021,18.021,0,0,1,3.941-.556,21.3,21.3,0,0,0-7.974.082L689.5,476.6l-13.631,4.656a112.066,112.066,0,0,1,23.141-1.119" fill="none"/>
      <path id="Path_112" data-name="Path 112" d="M694.868,475.932q5.562.629,11.13,1.2a89.935,89.935,0,0,0,15.256.662c3.873-.262,7.772-1,11.606-.4" fill="none"/>
      <path id="Path_113" data-name="Path 113" d="M702.887,478.8l41.5.785a30.569,30.569,0,0,0,4.689-.151" fill="none"/>
      <path id="Path_114" data-name="Path 114" d="M725.8,482.7a106.214,106.214,0,0,1,17.658,1.307c3.947.735,7.864,1.913,11.878,1.823,2.584-.059,5.324-.617,7.648.514" fill="none"/>
      <path id="Path_115" data-name="Path 115" d="M757.183,480.646a72.072,72.072,0,0,1,12.931,2.717c5.478,1.689,10.866,4.053,16.594,4.276" fill="none"/>
      <path id="Path_116" data-name="Path 116" d="M769.332,487.165c11.7.5,23.224,3.956,34.913,3.307" fill="none"/>
      <path id="Path_117" data-name="Path 117" d="M804.417,493.272a21.705,21.705,0,0,1,9.223,3.936l-2.678-1.006a18.575,18.575,0,0,0-2.706-.861c-1.742-.364-3.693-.268-5.1-1.356a.524.524,0,0,1-.209-.257c-.055-.2.118-.388.277-.523a14.131,14.131,0,0,1,2.8-1.844,5.293,5.293,0,0,1,1.714-.58,6.553,6.553,0,0,1,3.539.96" fill="none"/>
      <path id="Path_118" data-name="Path 118" d="M822.551,488.16a184.217,184.217,0,0,1,18.77-6.415" fill="none"/>
      <path id="Path_119" data-name="Path 119" d="M848.294,476.367c7.1-1.223,14.315-2.483,20.781-5.662" fill="none"/>
      <path id="Path_120" data-name="Path 120" d="M872.032,468.285c3.866-.824,6.976-3.985,10.888-4.55.776-.112,1.686-.185,2.112-.844.245-.38.479-1,.9-.842" fill="none"/>
      <path id="Path_121" data-name="Path 121" d="M566.853,266.574a9.719,9.719,0,0,1,3.036,1.489,21.463,21.463,0,0,0,5.068,2.243" fill="none"/>
      <path id="Path_122" data-name="Path 122" d="M581.184,274.389" fill="none"/>
      <path id="Path_123" data-name="Path 123" d="M589.311,277.832" fill="none"/>
      <path id="Path_124" data-name="Path 124" d="M598.2,281.178" fill="none"/>
      <path id="Path_125" data-name="Path 125" d="M605.566,284.334" fill="none"/>
      <path id="Path_126" data-name="Path 126" d="M614.362,286.437l-.527.083a32.3,32.3,0,0,1,16.511,5.3" fill="none"/>
      <path id="Path_127" data-name="Path 127" d="M636.584,291.678c6.246,2.749,13.613,1.087,20.143,3.07" fill="none"/>
      <path id="Path_128" data-name="Path 128" d="M661.309,296.013l17.873,1.079" fill="none"/>
      <path id="Path_129" data-name="Path 129" d="M685.227,297.929l15.789,1.17a73.778,73.778,0,0,0,8.113.3" fill="none"/>
      <path id="Path_130" data-name="Path 130" d="M712.465,297.433H727" fill="none"/>
      <path id="Path_131" data-name="Path 131" d="M730.249,295.253a114.144,114.144,0,0,0,22.27-1.695" fill="none"/>
      <path id="Path_132" data-name="Path 132" d="M755.133,290.1a109.718,109.718,0,0,0,20.193-5.993" fill="none"/>
      <path id="Path_133" data-name="Path 133" d="M778.663,281.68a90.949,90.949,0,0,0,17.24-6.594" fill="none"/>
      <path id="Path_134" data-name="Path 134" d="M798.71,272.286" fill="none"/>
      <text id="BLAUW" transform="translate(606 371.184)" font-size="48.367" font-family="Chalkduster" fill="none"><tspan x="0" y="0">BLAUW</tspan></text>
    </g>
  </g>
</svg>
