<svg xmlns="http://www.w3.org/2000/svg" width="544.846" height="1013.566" viewBox="0 0 544.846 1013.566">
  <g id="Group_60" data-name="Group 60" transform="translate(-698 -55.537)">
    <g id="Group_50" data-name="Group 50" transform="translate(-648.706 -312.876)">
      <g id="Group_15" data-name="Group 15" transform="translate(925.325 556.944)">
        <g id="Group_11" data-name="Group 11">
          <g id="Group_10" data-name="Group 10">
            <g id="Group_8" data-name="Group 8">
              <g id="Group_7" data-name="Group 7">
                <path id="Path_19" data-name="Path 19" d="M820.019,494.594l67.993-25.9s31.568,3.505-88.4-206" fill="none" stroke="#c1272d" stroke-width="4"/>
                <path id="Path_20" data-name="Path 20" d="M544.359,494.594l-67.993-25.9s-29.371-.225,90.6-209.731" fill="none" stroke="#c1272d" stroke-width="4"/>
                <path id="Path_21" data-name="Path 21" d="M585.152,378.643A1295.851,1295.851,0,0,0,540.081,506.28c-1.22,4.164.36-1.227,0,0h0c.947-2.121,2.427-5.038,2.427-5.038" fill="none" stroke="#c1272d" stroke-width="4"/>
                <path id="Path_22" data-name="Path 22" d="M792.614,393.643,820.767,504.5s-147.4-44.028-280.654,3.524" fill="none" stroke="#c1272d" stroke-width="4"/>
              </g>
              <path id="Path_23" data-name="Path 23" d="M802.085,264.061a149.173,149.173,0,0,1-50.026,23.059c-29.911,7.53-69.617,7.061-69.617,7.061s-62.688,1.237-118.021-34.265" fill="none" stroke="#c1272d" stroke-width="4"/>
            </g>
          </g>
          <path id="Path_24" data-name="Path 24" d="M546.619,487.119s114.809-41.126,268.295,0" fill="none" stroke="#c1272d" stroke-width="4"/>
          <path id="Path_25" data-name="Path 25" d="M476,453.432l70.495,29.847" fill="none" stroke="#c1272d" stroke-width="4"/>
          <path id="Path_26" data-name="Path 26" d="M889.495,453.92,817.41,484.234" fill="none" stroke="#c1272d" stroke-width="4"/>
          <path id="Path_27" data-name="Path 27" d="M562.151,270.765s126.4,70.782,243.2,3.342" fill="none" stroke="#c1272d" stroke-width="4"/>
        </g>
        <path id="Path_135" data-name="Path 135" d="M911.569,352.611" fill="none" stroke="#c1272d" stroke-width="4"/>
        <path id="Path_136" data-name="Path 136" d="M476.661,456.269l.118,9.834a14.293,14.293,0,0,1,2.611-7.866,30.764,30.764,0,0,1-.745,9.752,20.568,20.568,0,0,1,3.033-9.7c.521.185.712.812.8,1.357a16.711,16.711,0,0,1-1.683,10.485,18.2,18.2,0,0,1,1.06-8.27c.263-.7,1.109-1.491,1.593-.924a25.573,25.573,0,0,1-.3,7.138,23.324,23.324,0,0,1,3.586-9.627,4.675,4.675,0,0,1-2.39,2.477,1.042,1.042,0,0,1-.6.121.8.8,0,0,1-.531-.955,2.07,2.07,0,0,1,.663-1,1.955,1.955,0,0,1,1.383-.715,1.407,1.407,0,0,1,1.169,1.128,3.833,3.833,0,0,1-.1,1.723,37.684,37.684,0,0,1-1.724,5.643c-.316.8-.8,1.708-1.655,1.823a9.826,9.826,0,0,0,4.269-7.687c.148,2.941.281,5.987-.8,8.727a9.276,9.276,0,0,1,2.183-7.465,23.365,23.365,0,0,1-.64,8.018q1.006-3.994,2.277-7.915c.223-.69.846-1.544,1.469-1.172a60.216,60.216,0,0,0-2.346,10.52l4.2-9.422a16.3,16.3,0,0,1-.4,7.908l-.281-.84a4.517,4.517,0,0,0-1.613,2.133.654.654,0,0,0-.042.446.557.557,0,0,0,.29.277,1.337,1.337,0,0,0,1.393-2.272" fill="none" stroke="#c1272d" stroke-width="4"/>
        <path id="Path_137" data-name="Path 137" d="M496.316,467.863l34.911,13.753,11.1,4.374" fill="none" stroke="#c1272d" stroke-width="4"/>
        <path id="Path_138" data-name="Path 138" d="M547.544,498.663" fill="none" stroke="#c1272d" stroke-width="4"/>
        <path id="Path_139" data-name="Path 139" d="M550.389,491.834" fill="none" stroke="#c1272d" stroke-width="4"/>
        <path id="Path_140" data-name="Path 140" d="M552.381,495.818" fill="none" stroke="#c1272d" stroke-width="4"/>
        <path id="Path_141" data-name="Path 141" d="M546.451,500.7" fill="none" stroke="#c1272d" stroke-width="4"/>
        <path id="Path_142" data-name="Path 142" d="M554.377,496.191c.852-.368,1.515-1.071,2.33-1.514a9.578,9.578,0,0,1,4.05-.775,6.621,6.621,0,0,0,3.918-1.158" fill="none" stroke="#c1272d" stroke-width="4"/>
        <path id="Path_143" data-name="Path 143" d="M555.71,491.919c4.387.194,8.976.351,12.949-1.52a16.261,16.261,0,0,0-6.492-.154c4.774-.425,9.364-2.183,14.147-2.485a5.381,5.381,0,0,1-.5,2.557,1.629,1.629,0,0,1-1.016,1,3.018,3.018,0,0,1-1.339-.262c-.445-.118-1.044-.03-1.176.411" fill="none" stroke="#c1272d" stroke-width="4"/>
        <path id="Path_144" data-name="Path 144" d="M579.591,485.434c6.622.688,12.987-2.817,19.638-3.124,2.589-.12,5.311.226,7.671-.846" fill="none" stroke="#c1272d" stroke-width="4"/>
        <path id="Path_145" data-name="Path 145" d="M581.707,488.671a41.146,41.146,0,0,0,17.06-2.519c1.54-.528,3.063-1.113,4.633-1.547,3.434-.949,7.075-1.175,10.368-2.535" fill="none" stroke="#c1272d" stroke-width="4"/>
        <path id="Path_146" data-name="Path 146" d="M612.112,480.3a50.92,50.92,0,0,1,12.919.777l-6.245,1.67a31.055,31.055,0,0,1,6.182-6.841,3.291,3.291,0,0,1,1.27-.741,4.052,4.052,0,0,1,2.116.337c3.825,1.218,7.964.526,11.917-.176a14.939,14.939,0,0,1-10,6.858c5.181-1.528,10.365-3.057,15.611-4.347,1.32-.324,2.824-.6,3.95.157l-4.529,2.717a59.771,59.771,0,0,1,17.258-5.318c1.562-.231,3.447-.273,4.384,1a14.21,14.21,0,0,1-13.311,2.986,1.746,1.746,0,0,1-1.081-.676,1.6,1.6,0,0,1,.525-1.8,4.978,4.978,0,0,1,3.006-1.432l-1.157-.317c3.836,1.481,8.362.6,12.017,2.487a24.314,24.314,0,0,0,2.622,1.406c2.134.786,4.5.072,6.656-.642" fill="none" stroke="#c1272d" stroke-width="4"/>
        <path id="Path_147" data-name="Path 147" d="M674.77,475.644a18.021,18.021,0,0,1,3.941-.556,21.3,21.3,0,0,0-7.974.082L689.5,476.6l-13.631,4.656a112.066,112.066,0,0,1,23.141-1.119" fill="none" stroke="#c1272d" stroke-width="4"/>
        <path id="Path_148" data-name="Path 148" d="M694.868,475.932q5.562.629,11.13,1.2a89.935,89.935,0,0,0,15.256.662c3.873-.262,7.772-1,11.606-.4" fill="none" stroke="#c1272d" stroke-width="4"/>
        <path id="Path_149" data-name="Path 149" d="M702.887,478.8l41.5.785a30.569,30.569,0,0,0,4.689-.151" fill="none" stroke="#c1272d" stroke-width="4"/>
        <path id="Path_150" data-name="Path 150" d="M725.8,482.7a106.214,106.214,0,0,1,17.658,1.307c3.947.735,7.864,1.913,11.878,1.823,2.584-.059,5.324-.617,7.648.514" fill="none" stroke="#c1272d" stroke-width="4"/>
        <path id="Path_151" data-name="Path 151" d="M757.183,480.646a72.072,72.072,0,0,1,12.931,2.717c5.478,1.689,10.866,4.053,16.594,4.276" fill="none" stroke="#c1272d" stroke-width="4"/>
        <path id="Path_152" data-name="Path 152" d="M769.332,487.165c11.7.5,23.224,3.956,34.913,3.307" fill="none" stroke="#c1272d" stroke-width="4"/>
        <path id="Path_153" data-name="Path 153" d="M804.417,493.272a21.705,21.705,0,0,1,9.223,3.936l-2.678-1.006a18.575,18.575,0,0,0-2.706-.861c-1.742-.364-3.693-.268-5.1-1.356a.524.524,0,0,1-.209-.257c-.055-.2.118-.388.277-.523a14.131,14.131,0,0,1,2.8-1.844,5.293,5.293,0,0,1,1.714-.58,6.553,6.553,0,0,1,3.539.96" fill="none" stroke="#c1272d" stroke-width="4"/>
        <path id="Path_154" data-name="Path 154" d="M822.551,488.16a184.217,184.217,0,0,1,18.77-6.415" fill="none" stroke="#c1272d" stroke-width="4"/>
        <path id="Path_155" data-name="Path 155" d="M848.294,476.367c7.1-1.223,14.315-2.483,20.781-5.662" fill="none" stroke="#c1272d" stroke-width="4"/>
        <path id="Path_156" data-name="Path 156" d="M872.032,468.285c3.866-.824,6.976-3.985,10.888-4.55.776-.112,1.686-.185,2.112-.844.245-.38.479-1,.9-.842" fill="none" stroke="#c1272d" stroke-width="4"/>
        <path id="Path_157" data-name="Path 157" d="M566.853,266.574a9.719,9.719,0,0,1,3.036,1.489,21.463,21.463,0,0,0,5.068,2.243" fill="none" stroke="#c1272d" stroke-width="4"/>
        <path id="Path_158" data-name="Path 158" d="M581.184,274.389" fill="none" stroke="#c1272d" stroke-width="4"/>
        <path id="Path_159" data-name="Path 159" d="M589.311,277.832" fill="none" stroke="#c1272d" stroke-width="4"/>
        <path id="Path_160" data-name="Path 160" d="M598.2,281.178" fill="none" stroke="#c1272d" stroke-width="4"/>
        <path id="Path_161" data-name="Path 161" d="M605.566,284.334" fill="none" stroke="#c1272d" stroke-width="4"/>
        <path id="Path_162" data-name="Path 162" d="M614.362,286.437l-.527.083a32.3,32.3,0,0,1,16.511,5.3" fill="none" stroke="#c1272d" stroke-width="4"/>
        <path id="Path_163" data-name="Path 163" d="M636.584,291.678c6.246,2.749,13.613,1.087,20.143,3.07" fill="none" stroke="#c1272d" stroke-width="4"/>
        <path id="Path_164" data-name="Path 164" d="M661.309,296.013l17.873,1.079" fill="none" stroke="#c1272d" stroke-width="4"/>
        <path id="Path_165" data-name="Path 165" d="M685.227,297.929l15.789,1.17a73.778,73.778,0,0,0,8.113.3" fill="none" stroke="#c1272d" stroke-width="4"/>
        <path id="Path_166" data-name="Path 166" d="M712.465,297.433H727" fill="none" stroke="#c1272d" stroke-width="4"/>
        <path id="Path_167" data-name="Path 167" d="M730.249,295.253a114.144,114.144,0,0,0,22.27-1.695" fill="none" stroke="#c1272d" stroke-width="4"/>
        <path id="Path_168" data-name="Path 168" d="M755.133,290.1a109.718,109.718,0,0,0,20.193-5.993" fill="none" stroke="#c1272d" stroke-width="4"/>
        <path id="Path_169" data-name="Path 169" d="M778.663,281.68a90.949,90.949,0,0,0,17.24-6.594" fill="none" stroke="#c1272d" stroke-width="4"/>
        <path id="Path_170" data-name="Path 170" d="M798.71,272.286" fill="none" stroke="#c1272d" stroke-width="4"/>
        <text id="ROOD" transform="translate(622 371.184)" stroke="#c1272d" stroke-width="4" font-size="48.367" font-family="Chalkduster" fill="none"><tspan x="0" y="0">ROOD</tspan></text>
      </g>
    </g>
    <g id="Ellipse_4" data-name="Ellipse 4" transform="translate(706 257)" fill="#fca854" stroke="#f79999" stroke-width="1" opacity="0">
      <circle cx="33" cy="33" r="33" stroke="none"/>
      <circle cx="33" cy="33" r="32.5" fill="none"/>
    </g>
    <g id="Ellipse_6" data-name="Ellipse 6" transform="translate(698 205)" fill="#fca854" stroke="#f79999" stroke-width="1" opacity="0">
      <ellipse cx="37" cy="38" rx="37" ry="38" stroke="none"/>
      <ellipse cx="37" cy="38" rx="36.5" ry="37.5" fill="none"/>
    </g>
    <g id="Path_8" data-name="Path 8" transform="translate(740 706)" fill="#ffe6e6" opacity="0">
      <path d="M 37 79.5 C 32.07728958129883 79.5 27.30168914794922 78.4576416015625 22.80586051940918 76.40188598632812 C 18.46036911010742 74.41487121582031 14.55698013305664 71.56948089599609 11.20409965515137 67.94475555419922 C 7.848659992218018 64.31724548339844 5.213990211486816 60.09242248535156 3.373280048370361 55.38763427734375 C 1.466709971427917 50.51452255249023 0.5 45.33737182617188 0.5 40.00000381469727 C 0.5 33.70934295654297 0.7072299718856812 29.64473342895508 1.19293999671936 26.40896415710449 C 1.749660015106201 22.70008277893066 2.694659948348999 20.06345367431641 4.166910171508789 18.11134338378906 C 5.683559894561768 16.10037422180176 7.792890071868896 14.76501369476318 10.80512046813965 13.90889358520508 C 13.73320960998535 13.07668304443359 17.56414985656738 12.68908309936523 22.86133003234863 12.68908309936523 C 24.31109046936035 12.68908309936523 28.03616905212402 14.46365356445312 31.02931976318359 15.88953304290771 C 33.35459136962891 16.99725532531738 35.5538215637207 18.04494094848633 36.79991912841797 18.36095809936523 C 41.40204238891602 21.30817413330078 47.36304473876953 22.54670715332031 53.12899017333984 23.74481391906738 C 58.49092864990234 24.85898399353027 63.55550003051758 25.91135406494141 67.34417724609375 28.22251319885254 C 69.34291839599609 29.44177436828613 70.80539703369141 30.90523338317871 71.81519317626953 32.69651412963867 C 72.94889831542969 34.70759201049805 73.5 37.09658432006836 73.5 40.00000381469727 C 73.5 45.33737182617188 72.53328704833984 50.51452255249023 70.62671661376953 55.38763427734375 C 68.7860107421875 60.09242248535156 66.15133666992188 64.31724548339844 62.7958984375 67.94475555419922 C 59.44301986694336 71.56948089599609 55.53963088989258 74.41487121582031 51.19414138793945 76.40188598632812 C 46.69831085205078 78.4576416015625 41.92271041870117 79.5 37 79.5 Z" stroke="none"/>
      <path d="M 22.861328125 13.1890869140625 C 17.61167907714844 13.1890869140625 13.82416915893555 13.57063293457031 10.94181060791016 14.38984680175781 C 8.039726257324219 15.21465301513672 6.013801574707031 16.49285125732422 4.566108703613281 18.41240692138672 C 3.145988464355469 20.29538726806641 2.23126220703125 22.85993194580078 1.687400817871094 26.48318481445312 C 1.205581665039062 29.69308471679688 1 33.73549270629883 1 40.00000381469727 C 1 45.27478408813477 1.955146789550781 50.39064407348633 3.838912963867188 55.20546340942383 C 5.656776428222656 59.85186386108398 8.258277893066406 64.02375793457031 11.57115173339844 67.60523223876953 C 14.87889099121094 71.18117523193359 18.7287483215332 73.98780059814453 23.01377868652344 75.94717407226562 C 27.44390106201172 77.97288513183594 32.14953994750977 79 37 79 C 41.85046005249023 79 46.55609893798828 77.97288513183594 50.98622131347656 75.94717407226562 C 55.27124786376953 73.98780059814453 59.12110900878906 71.18117523193359 62.42884826660156 67.60523223876953 C 65.74172210693359 64.02375793457031 68.34322357177734 59.85186386108398 70.16108703613281 55.20546340942383 C 72.04485321044922 50.39064407348633 73 45.27478408813477 73 40.00000381469727 C 73 34.71831512451172 71.12008666992188 31.11156463623047 67.08380126953125 28.64936447143555 C 63.3690185546875 26.38328552246094 58.34561920166016 25.33946228027344 53.02726745605469 24.23435974121094 C 47.24481582641602 23.03281402587891 41.26740264892578 21.79074859619141 36.59757995605469 18.82493591308594 C 35.29896926879883 18.47736358642578 33.2130126953125 17.483642578125 30.81430053710938 16.3409423828125 C 28.02210998535156 15.01079559326172 24.19807815551758 13.1890869140625 22.861328125 13.1890869140625 M 22.861328125 12.1890869140625 C 25.55868148803711 12.1890869140625 34.20246887207031 17.23973083496094 37 17.8951416015625 C 49.885498046875 26.221923828125 74 20.82467651367188 74 40.00000381469727 C 74 62.09139251708984 57.43453216552734 80 37 80 C 16.56547164916992 80 0 62.09139251708984 0 40.00000381469727 C 0 17.90859985351562 2.426788330078125 12.1890869140625 22.861328125 12.1890869140625 Z" stroke="none" fill="#000"/>
    </g>
    <g id="Path_9" data-name="Path 9" transform="translate(1100.773 706)" fill="#ffe6e6" opacity="0">
      <path d="M 37 79.5 C 32.07728958129883 79.5 27.30168914794922 78.4576416015625 22.80586051940918 76.40188598632812 C 18.46036911010742 74.41487121582031 14.55698013305664 71.56948089599609 11.20409965515137 67.94475555419922 C 7.848659992218018 64.31724548339844 5.213990211486816 60.09242248535156 3.373280048370361 55.38763427734375 C 1.466709971427917 50.51452255249023 0.5 45.33737182617188 0.5 40.00000381469727 C 0.5 37.09658432006836 1.051100015640259 34.70759201049805 2.184809923171997 32.69651412963867 C 3.194600105285645 30.90523338317871 4.657080173492432 29.44177436828613 6.655819892883301 28.22251319885254 C 10.44449996948242 25.91135406494141 15.50907039642334 24.85898399353027 20.87100982666016 23.74481391906738 C 26.63695526123047 22.54670715332031 32.59795761108398 21.30817413330078 37.20008087158203 18.36095809936523 C 38.4461784362793 18.04494094848633 40.64540863037109 16.99725532531738 42.9706916809082 15.88953304290771 C 45.96384048461914 14.46364307403564 49.68891906738281 12.68908309936523 51.138671875 12.68908309936523 C 56.43584823608398 12.68908309936523 60.26679992675781 13.07668304443359 63.19488143920898 13.90889358520508 C 66.20710754394531 14.76501369476318 68.31645202636719 16.10036277770996 69.83309173583984 18.11134338378906 C 71.30534362792969 20.06345367431641 72.25034332275391 22.70008277893066 72.80706024169922 26.40896415710449 C 73.29277038574219 29.64473342895508 73.5 33.70934295654297 73.5 40.00000381469727 C 73.5 45.33737182617188 72.53328704833984 50.51452255249023 70.62671661376953 55.38763427734375 C 68.7860107421875 60.09242248535156 66.15133666992188 64.31724548339844 62.7958984375 67.94475555419922 C 59.44301986694336 71.56948089599609 55.53963088989258 74.41487121582031 51.19414138793945 76.40188598632812 C 46.69831085205078 78.4576416015625 41.92271041870117 79.5 37 79.5 Z" stroke="none"/>
      <path d="M 51.138671875 13.1890869140625 C 49.80191802978516 13.1890869140625 45.97788238525391 15.01079559326172 43.18569183349609 16.3409423828125 C 40.7869873046875 17.483642578125 38.70103073120117 18.47736358642578 37.40242004394531 18.82493591308594 C 32.73259735107422 21.79074859619141 26.75518417358398 23.03281402587891 20.97272872924805 24.23435974121094 C 15.65438079833984 25.33946228027344 10.6309814453125 26.38328552246094 6.91619873046875 28.64936447143555 C 2.879913330078125 31.11156463623047 1 34.71831512451172 1 40.00000381469727 C 1 45.27478408813477 1.955146789550781 50.39064407348633 3.838912963867188 55.20546340942383 C 5.656776428222656 59.85186386108398 8.258277893066406 64.02375793457031 11.57115173339844 67.60523223876953 C 14.87889099121094 71.18117523193359 18.7287483215332 73.98780059814453 23.01377868652344 75.94717407226562 C 27.44390106201172 77.97288513183594 32.14953994750977 79 37 79 C 41.85046005249023 79 46.55609893798828 77.97288513183594 50.98622131347656 75.94717407226562 C 55.27124786376953 73.98780059814453 59.12110900878906 71.18117523193359 62.42884826660156 67.60523223876953 C 65.74172210693359 64.02375793457031 68.34322357177734 59.85186386108398 70.16108703613281 55.20546340942383 C 72.04485321044922 50.39064407348633 73 45.27478408813477 73 40.00000381469727 C 73 33.73549270629883 72.79441833496094 29.69308471679688 72.31259918212891 26.48318481445312 C 71.76873779296875 22.85993194580078 70.85400390625 20.29538726806641 69.43389129638672 18.41240692138672 C 67.98619842529297 16.49285125732422 65.96026611328125 15.21465301513672 63.05818176269531 14.38984680175781 C 60.17583084106445 13.57063293457031 56.38832092285156 13.1890869140625 51.138671875 13.1890869140625 M 51.138671875 12.1890869140625 C 71.57319641113281 12.1890869140625 74 17.90859985351562 74 40.00000381469727 C 74 62.09139251708984 57.43453216552734 80 37 80 C 16.56547164916992 80 0 62.09139251708984 0 40.00000381469727 C 0 20.82467651367188 24.11449813842773 26.221923828125 37 17.8951416015625 C 39.79753112792969 17.23973083496094 48.44131088256836 12.1890869140625 51.138671875 12.1890869140625 Z" stroke="none" fill="#000"/>
    </g>
    <path id="Union_1" data-name="Union 1" d="M4637-1012.83v-56.947c0-4.613,18.658-4.069,25.058-4.209,12.724-.283,18.958,4.209,18.958,4.209v56.693h0v.255c0,4.074-18.658,3.594-25.058,3.718-.388.008-.772.011-1.148.011C4642.857-1009.1,4637-1012.83,4637-1012.83Z" transform="translate(-3806.7 2006.605)" fill="#ffe6e6" stroke="#000" stroke-width="1" opacity="0"/>
    <path id="Union_2" data-name="Union 2" d="M4637-1016.6v-53.438c0-4.329,18.658-3.819,25.058-3.95,12.724-.266,18.958,3.95,18.958,3.95v53.2h0v.239c0,3.823-18.658,3.372-25.058,3.489-.388.007-.772.011-1.148.011C4642.857-1013.1,4637-1016.6,4637-1016.6Z" transform="translate(-3608.7 2016.605)" fill="#ffe6e6" stroke="#000" stroke-width="1" opacity="0"/>
    <g id="Group_1" data-name="Group 1" transform="translate(-241 33.557)" opacity="0">
      <g id="Ellipse_1" data-name="Ellipse 1" transform="translate(981 84)" fill="#ffe6e6" stroke="#000" stroke-width="7">
        <ellipse cx="220" cy="211.5" rx="220" ry="211.5" stroke="none"/>
        <ellipse cx="220" cy="211.5" rx="216.5" ry="208" fill="none"/>
      </g>
      <path id="Path_1" data-name="Path 1" d="M-3710.233,1827.684l67.993-25.9s31.568,3.505-88.4-206" transform="translate(5047 -1120)" fill="none" stroke="#010101" stroke-width="5"/>
      <path id="Path_2" data-name="Path 2" d="M-3658.893,1827.684l-67.993-25.9s-31.568,3.505,88.4-206" transform="translate(4720 -1120)" fill="none" stroke="#010101" stroke-width="5"/>
      <path id="Path_3" data-name="Path 3" d="M-3610.1,1711.733s-95.346,224.021-66.674,322.381" transform="translate(4712 -1120)" fill="none" stroke="#010101" stroke-width="5"/>
      <path id="Path_4" data-name="Path 4" d="M-3682.153,1711.733s68.957,223.793,40.285,322.153" transform="translate(4991.515 -1105)" fill="none" stroke="#010101" stroke-width="5"/>
      <path id="Path_5" data-name="Path 5" d="M-3684.913,2029.75c70.815-38.094,121.433,4.363,121.433,4.363s4.718-146.29,40.211-149.268,34.715,153.793,34.715,153.793" transform="translate(4718.35 -1115)" fill="none" stroke="#000" stroke-width="5"/>
      <path id="Path_6" data-name="Path 6" d="M-3563.48,2034.113s-50.618-42.458-121.433-4.363" transform="translate(4914.35 -1105.228)" fill="none" stroke="#000" stroke-width="5"/>
    </g>
    <circle id="Ellipse_2" data-name="Ellipse 2" cx="15.5" cy="15.5" r="15.5" transform="translate(858 291.534)" opacity="0"/>
    <circle id="Ellipse_3" data-name="Ellipse 3" cx="15.5" cy="15.5" r="15.5" transform="translate(1046.896 291.534)" opacity="0"/>
    <path id="Path_7" data-name="Path 7" d="M-3844.714,1545.591s79.726,99.389,173.4,5.719" transform="translate(4718.214 -1122)" fill="none" stroke="#000" stroke-width="4" opacity="0"/>
    <g id="Ellipse_5" data-name="Ellipse 5" transform="translate(718 196)" fill="#fca854" stroke="#f79999" stroke-width="1" opacity="0">
      <circle cx="38" cy="38" r="38" stroke="none"/>
      <circle cx="38" cy="38" r="37.5" fill="none"/>
    </g>
    <g id="Ellipse_7" data-name="Ellipse 7" transform="matrix(0.891, 0.454, -0.454, 0.891, 735.963, 176.597)" fill="#fca854" stroke="#f79999" stroke-width="1" opacity="0">
      <circle cx="33" cy="33" r="33" stroke="none"/>
      <circle cx="33" cy="33" r="32.5" fill="none"/>
    </g>
    <g id="Ellipse_10" data-name="Ellipse 10" transform="matrix(0.891, 0.454, -0.454, 0.891, 791.963, 132.212)" fill="#fca854" stroke="#f79999" stroke-width="1" opacity="0">
      <circle cx="33" cy="33" r="33" stroke="none"/>
      <circle cx="33" cy="33" r="32.5" fill="none"/>
    </g>
    <g id="Ellipse_13" data-name="Ellipse 13" transform="matrix(0.891, 0.454, -0.454, 0.891, 872.029, 124.212)" fill="#fca854" stroke="#f79999" stroke-width="1" opacity="0">
      <circle cx="33" cy="33" r="33" stroke="none"/>
      <circle cx="33" cy="33" r="32.5" fill="none"/>
    </g>
    <circle id="Ellipse_16" data-name="Ellipse 16" cx="33" cy="33" r="33" transform="matrix(0.891, 0.454, -0.454, 0.891, 921.931, 125.273)" fill="#fdb266" opacity="0"/>
    <g id="Ellipse_19" data-name="Ellipse 19" transform="matrix(0.891, 0.454, -0.454, 0.891, 969.226, 132.904)" fill="#fca854" stroke="#f79999" stroke-width="1" opacity="0">
      <circle cx="33" cy="33" r="33" stroke="none"/>
      <circle cx="33" cy="33" r="32.5" fill="none"/>
    </g>
    <g id="Ellipse_22" data-name="Ellipse 22" transform="matrix(0.891, 0.454, -0.454, 0.891, 989.963, 116.23)" fill="#fca854" stroke="#f79999" stroke-width="1" opacity="0">
      <circle cx="33" cy="33" r="33" stroke="none"/>
      <circle cx="33" cy="33" r="32.5" fill="none"/>
    </g>
    <circle id="Ellipse_25" data-name="Ellipse 25" cx="33" cy="33" r="33" transform="matrix(0.891, 0.454, -0.454, 0.891, 1044.963, 157.195)" fill="#fdb266" opacity="0"/>
    <circle id="Ellipse_28" data-name="Ellipse 28" cx="33" cy="33" r="33" transform="matrix(0.891, 0.454, -0.454, 0.891, 918.964, 112.81)" fill="#fdb266" opacity="0"/>
    <g id="Ellipse_31" data-name="Ellipse 31" transform="matrix(0.891, 0.454, -0.454, 0.891, 836.308, 151.316)" fill="#fca854" stroke="#f79999" stroke-width="1" opacity="0">
      <circle cx="33" cy="33" r="33" stroke="none"/>
      <circle cx="33" cy="33" r="32.5" fill="none"/>
    </g>
    <circle id="Ellipse_34" data-name="Ellipse 34" cx="33" cy="33" r="33" transform="matrix(0.891, 0.454, -0.454, 0.891, 775.308, 214.121)" fill="#fdb266" opacity="0"/>
    <circle id="Ellipse_37" data-name="Ellipse 37" cx="33" cy="33" r="33" transform="matrix(0.891, 0.454, -0.454, 0.891, 1092.359, 195.41)" fill="#fdb266" opacity="0"/>
    <circle id="Ellipse_40" data-name="Ellipse 40" cx="33" cy="33" r="33" transform="matrix(0.891, 0.454, -0.454, 0.891, 1126.029, 248.035)" fill="#fdb266" opacity="0"/>
    <g id="Ellipse_46" data-name="Ellipse 46" transform="matrix(0.891, 0.454, -0.454, 0.891, 853.898, 105.501)" fill="#fca854" stroke="#f79999" stroke-width="1" opacity="0">
      <circle cx="33" cy="33" r="33" stroke="none"/>
      <circle cx="33" cy="33" r="32.5" fill="none"/>
    </g>
    <g id="Ellipse_8" data-name="Ellipse 8" transform="matrix(0.891, 0.454, -0.454, 0.891, 774.349, 127.694)" fill="#fca854" stroke="#f79999" stroke-width="1" opacity="0">
      <circle cx="38" cy="38" r="38" stroke="none"/>
      <circle cx="38" cy="38" r="37.5" fill="none"/>
    </g>
    <g id="Ellipse_11" data-name="Ellipse 11" transform="matrix(0.891, 0.454, -0.454, 0.891, 830.349, 83.309)" fill="#fca854" stroke="#f79999" stroke-width="1" opacity="0">
      <circle cx="38" cy="38" r="38" stroke="none"/>
      <circle cx="38" cy="38" r="37.5" fill="none"/>
    </g>
    <g id="Ellipse_14" data-name="Ellipse 14" transform="matrix(0.891, 0.454, -0.454, 0.891, 910.414, 75.309)" fill="#fca854" stroke="#f79999" stroke-width="1" opacity="0">
      <circle cx="38" cy="38" r="38" stroke="none"/>
      <circle cx="38" cy="38" r="37.5" fill="none"/>
    </g>
    <g id="Ellipse_17" data-name="Ellipse 17" transform="matrix(0.891, 0.454, -0.454, 0.891, 960.316, 76.37)" fill="#fca854" stroke="#f79999" stroke-width="1" opacity="0">
      <circle cx="38" cy="38" r="38" stroke="none"/>
      <circle cx="38" cy="38" r="37.5" fill="none"/>
    </g>
    <g id="Ellipse_20" data-name="Ellipse 20" transform="matrix(0.891, 0.454, -0.454, 0.891, 1015.316, 101.352)" fill="#fca854" stroke="#f79999" stroke-width="1" opacity="0">
      <circle cx="38" cy="38" r="38" stroke="none"/>
      <circle cx="38" cy="38" r="37.5" fill="none"/>
    </g>
    <g id="Ellipse_23" data-name="Ellipse 23" transform="matrix(0.891, 0.454, -0.454, 0.891, 1028.349, 67.327)" fill="#fca854" stroke="#f79999" stroke-width="1" opacity="0">
      <circle cx="38" cy="38" r="38" stroke="none"/>
      <circle cx="38" cy="38" r="37.5" fill="none"/>
    </g>
    <g id="Ellipse_29" data-name="Ellipse 29" transform="matrix(0.891, 0.454, -0.454, 0.891, 957.349, 63.906)" fill="#fca854" stroke="#f79999" stroke-width="1" opacity="0">
      <circle cx="38" cy="38" r="38" stroke="none"/>
      <circle cx="38" cy="38" r="37.5" fill="none"/>
    </g>
    <g id="Ellipse_32" data-name="Ellipse 32" transform="matrix(0.891, 0.454, -0.454, 0.891, 874.694, 102.413)" fill="#fca854" stroke="#f79999" stroke-width="1" opacity="0">
      <circle cx="38" cy="38" r="38" stroke="none"/>
      <circle cx="38" cy="38" r="37.5" fill="none"/>
    </g>
    <g id="Ellipse_35" data-name="Ellipse 35" transform="matrix(0.891, 0.454, -0.454, 0.891, 813.694, 165.218)" fill="#fca854" stroke="#f79999" stroke-width="1" opacity="0">
      <circle cx="38" cy="38" r="38" stroke="none"/>
      <circle cx="38" cy="38" r="37.5" fill="none"/>
    </g>
    <g id="Ellipse_38" data-name="Ellipse 38" transform="matrix(0.891, 0.454, -0.454, 0.891, 1130.745, 146.507)" fill="#fca854" stroke="#f79999" stroke-width="1" opacity="0">
      <circle cx="38" cy="38" r="38" stroke="none"/>
      <circle cx="38" cy="38" r="37.5" fill="none"/>
    </g>
    <g id="Ellipse_41" data-name="Ellipse 41" transform="matrix(0.891, 0.454, -0.454, 0.891, 1164.414, 199.131)" fill="#fca854" stroke="#f79999" stroke-width="1" opacity="0">
      <circle cx="38" cy="38" r="38" stroke="none"/>
      <circle cx="38" cy="38" r="37.5" fill="none"/>
    </g>
    <circle id="Ellipse_44" data-name="Ellipse 44" cx="38" cy="38" r="38" transform="matrix(0.891, 0.454, -0.454, 0.891, 1175.13, 249.787)" fill="#fdb266" opacity="0"/>
    <circle id="Ellipse_47" data-name="Ellipse 47" cx="38" cy="38" r="38" transform="matrix(0.891, 0.454, -0.454, 0.891, 892.283, 56.598)" fill="#fdb266" opacity="0"/>
    <ellipse id="Ellipse_9" data-name="Ellipse 9" cx="37" cy="38" rx="37" ry="38" transform="matrix(0.891, 0.454, -0.454, 0.891, 752.443, 126.633)" fill="#fdb266" opacity="0"/>
    <g id="Ellipse_12" data-name="Ellipse 12" transform="matrix(0.891, 0.454, -0.454, 0.891, 808.443, 82.248)" fill="#fca854" stroke="#f79999" stroke-width="1" opacity="0">
      <ellipse cx="37" cy="38" rx="37" ry="38" stroke="none"/>
      <ellipse cx="37" cy="38" rx="36.5" ry="37.5" fill="none"/>
    </g>
    <g id="Ellipse_15" data-name="Ellipse 15" transform="matrix(0.891, 0.454, -0.454, 0.891, 888.508, 74.248)" fill="#fca854" stroke="#f79999" stroke-width="1" opacity="0">
      <ellipse cx="37" cy="38" rx="37" ry="38" stroke="none"/>
      <ellipse cx="37" cy="38" rx="36.5" ry="37.5" fill="none"/>
    </g>
    <g id="Ellipse_18" data-name="Ellipse 18" transform="matrix(0.891, 0.454, -0.454, 0.891, 938.41, 75.309)" fill="#fca854" stroke="#f79999" stroke-width="1" opacity="0">
      <ellipse cx="37" cy="38" rx="37" ry="38" stroke="none"/>
      <ellipse cx="37" cy="38" rx="36.5" ry="37.5" fill="none"/>
    </g>
    <ellipse id="Ellipse_21" data-name="Ellipse 21" cx="37" cy="38" rx="37" ry="38" transform="matrix(0.891, 0.454, -0.454, 0.891, 993.41, 100.291)" fill="#fdb266" opacity="0"/>
    <ellipse id="Ellipse_24" data-name="Ellipse 24" cx="37" cy="38" rx="37" ry="38" transform="matrix(0.891, 0.454, -0.454, 0.891, 1006.443, 66.266)" fill="#fdb266" opacity="0"/>
    <g id="Ellipse_27" data-name="Ellipse 27" transform="matrix(0.891, 0.454, -0.454, 0.891, 1061.443, 107.23)" fill="#fca854" stroke="#f79999" stroke-width="1" opacity="0">
      <ellipse cx="37" cy="38" rx="37" ry="38" stroke="none"/>
      <ellipse cx="37" cy="38" rx="36.5" ry="37.5" fill="none"/>
    </g>
    <g id="Ellipse_30" data-name="Ellipse 30" transform="matrix(0.891, 0.454, -0.454, 0.891, 935.443, 62.845)" fill="#fca854" stroke="#f79999" stroke-width="1" opacity="0">
      <ellipse cx="37" cy="38" rx="37" ry="38" stroke="none"/>
      <ellipse cx="37" cy="38" rx="36.5" ry="37.5" fill="none"/>
    </g>
    <ellipse id="Ellipse_33" data-name="Ellipse 33" cx="37" cy="38" rx="37" ry="38" transform="matrix(0.891, 0.454, -0.454, 0.891, 852.788, 101.352)" fill="#fdb266" opacity="0"/>
    <g id="Ellipse_36" data-name="Ellipse 36" transform="matrix(0.891, 0.454, -0.454, 0.891, 791.788, 164.157)" fill="#fca854" stroke="#f79999" stroke-width="1" opacity="0">
      <ellipse cx="37" cy="38" rx="37" ry="38" stroke="none"/>
      <ellipse cx="37" cy="38" rx="36.5" ry="37.5" fill="none"/>
    </g>
    <ellipse id="Ellipse_39" data-name="Ellipse 39" cx="37" cy="38" rx="37" ry="38" transform="matrix(0.891, 0.454, -0.454, 0.891, 1108.839, 145.446)" fill="#fdb266" opacity="0"/>
    <ellipse id="Ellipse_42" data-name="Ellipse 42" cx="37" cy="38" rx="37" ry="38" transform="matrix(0.891, 0.454, -0.454, 0.891, 1142.508, 198.071)" fill="#fdb266" opacity="0"/>
    <g id="Ellipse_45" data-name="Ellipse 45" transform="matrix(0.891, 0.454, -0.454, 0.891, 1153.224, 248.726)" fill="#fca854" stroke="#f79999" stroke-width="1" opacity="0">
      <ellipse cx="37" cy="38" rx="37" ry="38" stroke="none"/>
      <ellipse cx="37" cy="38" rx="36.5" ry="37.5" fill="none"/>
    </g>
    <g id="Ellipse_48" data-name="Ellipse 48" transform="matrix(0.891, 0.454, -0.454, 0.891, 870.377, 55.537)" fill="#fca854" stroke="#f79999" stroke-width="1" opacity="0">
      <ellipse cx="37" cy="38" rx="37" ry="38" stroke="none"/>
      <ellipse cx="37" cy="38" rx="36.5" ry="37.5" fill="none"/>
    </g>
    <g id="Ellipse_49" data-name="Ellipse 49" transform="translate(765.665 1002.451) rotate(-22)" fill="#ffe6e6" stroke="#707070" stroke-width="1" opacity="0">
      <ellipse cx="52.395" cy="31.133" rx="52.395" ry="31.133" stroke="none"/>
      <ellipse cx="52.395" cy="31.133" rx="51.895" ry="30.633" fill="none"/>
    </g>
    <g id="Ellipse_50" data-name="Ellipse 50" transform="translate(763.545 1023.976) rotate(-45)" fill="#ffe6e6" stroke="#707070" stroke-width="1" opacity="0">
      <ellipse cx="11.895" cy="7.133" rx="11.895" ry="7.133" stroke="none"/>
      <ellipse cx="11.895" cy="7.133" rx="11.395" ry="6.633" fill="none"/>
    </g>
    <g id="Ellipse_51" data-name="Ellipse 51" transform="translate(765.665 1033.976) rotate(-45)" fill="#ffe6e6" stroke="#707070" stroke-width="1" opacity="0">
      <ellipse cx="11.895" cy="7.133" rx="11.895" ry="7.133" stroke="none"/>
      <ellipse cx="11.895" cy="7.133" rx="11.395" ry="6.633" fill="none"/>
    </g>
    <g id="Ellipse_52" data-name="Ellipse 52" transform="translate(772.086 1040.431) rotate(-45)" fill="#ffe6e6" stroke="#707070" stroke-width="1" opacity="0">
      <ellipse cx="11.895" cy="7.133" rx="11.895" ry="7.133" stroke="none"/>
      <ellipse cx="11.895" cy="7.133" rx="11.395" ry="6.633" fill="none"/>
    </g>
    <g id="Ellipse_53" data-name="Ellipse 53" transform="translate(785.12 1044.431) rotate(-45)" fill="#ffe6e6" stroke="#707070" stroke-width="1" opacity="0">
      <ellipse cx="11.895" cy="7.133" rx="11.895" ry="7.133" stroke="none"/>
      <ellipse cx="11.895" cy="7.133" rx="11.395" ry="6.633" fill="none"/>
    </g>
    <g id="Ellipse_54" data-name="Ellipse 54" transform="translate(798.997 1047.431) rotate(-45)" fill="#ffe6e6" stroke="#707070" stroke-width="1" opacity="0">
      <ellipse cx="11.895" cy="7.133" rx="11.895" ry="7.133" stroke="none"/>
      <ellipse cx="11.895" cy="7.133" rx="11.395" ry="6.633" fill="none"/>
    </g>
    <g id="Ellipse_55" data-name="Ellipse 55" transform="translate(1112.328 1069.103) rotate(-158)" fill="#ffe6e6" stroke="#707070" stroke-width="1" opacity="0">
      <ellipse cx="52.395" cy="31.133" rx="52.395" ry="31.133" stroke="none"/>
      <ellipse cx="52.395" cy="31.133" rx="51.895" ry="30.633" fill="none"/>
    </g>
    <g id="Ellipse_56" data-name="Ellipse 56" transform="translate(1127.685 1042.983) rotate(-135)" fill="#ffe6e6" stroke="#707070" stroke-width="1" opacity="0">
      <ellipse cx="11.895" cy="7.133" rx="11.895" ry="7.133" stroke="none"/>
      <ellipse cx="11.895" cy="7.133" rx="11.395" ry="6.633" fill="none"/>
    </g>
    <g id="Ellipse_57" data-name="Ellipse 57" transform="translate(1125.565 1052.983) rotate(-135)" fill="#ffe6e6" stroke="#707070" stroke-width="1" opacity="0">
      <ellipse cx="11.895" cy="7.133" rx="11.895" ry="7.133" stroke="none"/>
      <ellipse cx="11.895" cy="7.133" rx="11.395" ry="6.633" fill="none"/>
    </g>
    <g id="Ellipse_58" data-name="Ellipse 58" transform="translate(1119.144 1059.439) rotate(-135)" fill="#ffe6e6" stroke="#707070" stroke-width="1" opacity="0">
      <ellipse cx="11.895" cy="7.133" rx="11.895" ry="7.133" stroke="none"/>
      <ellipse cx="11.895" cy="7.133" rx="11.395" ry="6.633" fill="none"/>
    </g>
    <g id="Ellipse_59" data-name="Ellipse 59" transform="translate(1106.11 1063.439) rotate(-135)" fill="#ffe6e6" stroke="#707070" stroke-width="1" opacity="0">
      <ellipse cx="11.895" cy="7.133" rx="11.895" ry="7.133" stroke="none"/>
      <ellipse cx="11.895" cy="7.133" rx="11.395" ry="6.633" fill="none"/>
    </g>
    <g id="Ellipse_60" data-name="Ellipse 60" transform="translate(1092.233 1066.439) rotate(-135)" fill="#ffe6e6" stroke="#707070" stroke-width="1" opacity="0">
      <ellipse cx="11.895" cy="7.133" rx="11.895" ry="7.133" stroke="none"/>
      <ellipse cx="11.895" cy="7.133" rx="11.395" ry="6.633" fill="none"/>
    </g>
    <path id="Path_15" data-name="Path 15" d="M-3817.967,1826.094s111.674-43.85,275.327,0" transform="translate(4637 -1074)" fill="none" stroke="#707070" stroke-width="1" stroke-dasharray="3" opacity="0"/>
    <path id="Path_16" data-name="Path 16" d="M-3844.714,1545.591s15.384,19.179,33.459,1.1" transform="translate(-2954.484 1834.201) rotate(180)" fill="none" stroke="#fca854" stroke-width="4" opacity="0"/>
    <path id="Path_17" data-name="Path 17" d="M-3844.714,1545.591s15.384,19.179,33.459,1.1" transform="translate(-2765.588 1834.201) rotate(180)" fill="none" stroke="#fca854" stroke-width="4" opacity="0"/>
  </g>
</svg>
